<?xml version="1.0" encoding="UTF-8"?>
<svg id="Layer_1" data-name="Layer 1" xmlns="http://www.w3.org/2000/svg" viewBox="0 0 1080 1080">
  <defs>
    <style>
      .cls-1, .cls-2 {
        stroke-width: 0px;
      }

      .cls-2 {
        fill: #fff;
      }
    </style>
  </defs>
  <rect class="cls-1" width="1080" height="1080"/>
  <g>
    <path class="cls-2" d="m886.41,552.22l-39.32-40.61-41.85,41.85h-67.13v-90.47c0-7.64-3.04-14.97-8.44-20.37l-29.49-29.49-33.96,33.96,23.86,23.86v118.59c0,7.64,3.04,14.97,8.44,20.37l42.46,42.46,33.96-33.96-16.93-16.93h55.19c7.64,0,14.97-3.04,20.37-8.44l12.97-12.97,11.04,11.4c5.43,5.6,12.9,8.77,20.7,8.77h69.11l9.6-48.02h-70.58Z"/>
    <rect class="cls-2" x="904.51" y="488.89" width="34.24" height="34.24"/>
    <polygon class="cls-2" points="816.15 615.27 782.11 615.27 782.11 649.51 816.15 649.51 816.35 649.51 852.15 649.51 852.15 615.27 816.35 615.27 816.15 615.27"/>
    <path class="cls-2" d="m598.98,505.81h-115.53v66.79c0,15.91,12.9,28.81,28.81,28.81h4.26l-31.5,31.5,33.96,33.96,65.46-65.46h81.46l9.6-48.02h-76.51v-47.58Z"/>
    <polygon class="cls-2" points="621.7 615.27 587.66 615.27 587.66 649.51 612.1 649.51 612.29 649.51 657.7 649.51 657.7 615.27 621.9 615.27 621.7 615.27"/>
    <rect class="cls-2" x="333.5" y="462.84" width="34.24" height="34.24"/>
    <path class="cls-2" d="m367.71,505.89h-30.69c-15.91,0-28.81,12.9-28.81,28.81v16.6h-74.65l-9.6,48.02h26.79l-6.25,17.82h-48.74v-54.74c0-7.64-3.04-14.97-8.44-20.37l-30.35-30.35-33.96,33.96,24.72,24.72v65.99c0,15.91,12.9,28.81,28.81,28.81h101.98l23.1-65.84h163.13l9.6-48.02h-106.65v-45.41Z"/>
  </g>
</svg>