<?xml version="1.0" encoding="UTF-8"?>
<svg id="Layer_1" data-name="Layer 1" xmlns="http://www.w3.org/2000/svg" viewBox="0 0 1080 1080">
  <defs>
    <style>
      .cls-1, .cls-2 {
        stroke-width: 0px;
      }

      .cls-2 {
        fill: #fff;
      }
    </style>
  </defs>
  <circle class="cls-1" cx="540" cy="540" r="539.47"/>
  <g>
    <path class="cls-2" d="m940.71,554.14l-45.48-46.98-48.41,48.41h-77.65v-104.65c0-8.84-3.52-17.32-9.76-23.56l-34.11-34.11-39.28,39.28,27.6,27.6v137.18c0,8.84,3.52,17.32,9.76,23.56l49.12,49.12,39.28-39.28-19.58-19.58h63.84c8.84,0,17.32-3.52,23.56-9.76l15-15,12.77,13.19c6.28,6.48,14.92,10.14,23.94,10.14h79.94l11.1-55.55h-81.64,0Z"/>
    <rect class="cls-2" x="961.64" y="480.88" width="39.61" height="39.61"/>
    <polygon class="cls-2" points="859.43 627.07 820.06 627.07 820.06 666.67 859.43 666.67 859.66 666.67 901.08 666.67 901.08 627.07 859.66 627.07 859.43 627.07"/>
    <path class="cls-2" d="m608.22,500.45h-133.64v77.26c0,18.4,14.92,33.33,33.33,33.33h4.93l-36.44,36.44,39.28,39.28,75.72-75.72h94.23l11.1-55.55h-88.5v-55.04h-.01Z"/>
    <polygon class="cls-2" points="634.51 627.07 595.13 627.07 595.13 666.67 623.4 666.67 623.62 666.67 676.15 666.67 676.15 627.07 634.74 627.07 634.51 627.07"/>
    <rect class="cls-2" x="301.13" y="450.75" width="39.61" height="39.61"/>
    <path class="cls-2" d="m340.71,500.54h-35.5c-18.4,0-33.33,14.92-33.33,33.33v19.2h-86.35l-11.1,55.55h30.99l-7.23,20.61h-56.38v-63.32c0-8.84-3.52-17.32-9.76-23.56l-35.11-35.11-39.28,39.28,28.59,28.59v76.33c0,18.4,14.92,33.33,33.33,33.33h117.96l26.72-76.16h188.7l11.1-55.55h-123.37v-52.53h.01Z"/>
  </g>
</svg>