<?xml version="1.0" encoding="UTF-8"?>
<svg id="Layer_1" data-name="Layer 1" xmlns="http://www.w3.org/2000/svg" viewBox="50 300 1850 560">
  <defs>
    <style>
      .cls-1 {
        fill: #ffffff;
        stroke-width: 0px;
      }
    </style>
  </defs>
  <path class="cls-1" d="m1545.61,560.66l-66.48-68.65-70.75,70.75h-113.48v-152.94c0-12.92-5.13-25.31-14.27-34.44l-49.85-49.85-57.4,57.4,40.34,40.34v200.48c0,12.92,5.13,25.31,14.27,34.44l71.77,71.77,57.4-57.4-28.63-28.63h93.29c12.92,0,25.31-5.13,34.44-14.27l21.93-21.93,18.66,19.27c9.18,9.47,21.8,14.82,34.99,14.82h116.84l16.24-81.18h-119.32Z"/>
  <rect class="cls-1" x="1576.2" y="453.6" width="57.88" height="57.88"/>
  <polygon class="cls-1" points="1426.84 667.25 1369.28 667.25 1369.28 725.13 1426.84 725.13 1427.16 725.13 1487.68 725.13 1487.68 667.25 1427.16 667.25 1426.84 667.25"/>
  <path class="cls-1" d="m1059.71,482.2h-195.31v112.91c0,26.9,21.81,48.71,48.71,48.71h7.19l-53.25,53.25,57.4,57.4,110.66-110.66h137.71l16.24-81.18h-129.34v-80.43Z"/>
  <polygon class="cls-1" points="1098.12 667.25 1040.56 667.25 1040.56 725.13 1081.88 725.13 1082.21 725.13 1158.97 725.13 1158.97 667.25 1098.45 667.25 1098.12 667.25"/>
  <rect class="cls-1" x="610.91" y="409.56" width="57.88" height="57.88"/>
  <path class="cls-1" d="m668.74,482.34h-51.89c-26.9,0-48.71,21.81-48.71,48.71v28.06h-126.2l-16.24,81.18h45.29l-10.57,30.12h-82.39v-92.53c0-12.92-5.13-25.31-14.27-34.44l-51.3-51.3-57.4,57.4,41.79,41.79v111.55c0,26.9,21.81,48.71,48.71,48.71h172.4l39.06-111.3h275.76l16.24-81.18h-180.29v-76.77Z"/>
</svg>