<?xml version="1.0" encoding="UTF-8"?>
<svg id="Layer_1" data-name="Layer 1" xmlns="http://www.w3.org/2000/svg" viewBox="0 0 1080 1080">
  <defs>
    <style>
      .cls-1 {
        fill: #fff;
        stroke-width: 0px;
      }
    </style>
  </defs>
  <path class="cls-1" d="m864.08,335.48v410.65c-.98,2.63-2.39,5.19-2.87,7.9-10.24,59.01-51.01,96.58-110.31,96.99-140.58.97-281.17-.05-421.76.52-55.47.22-112.06-43.06-112.57-113.81-.95-131.13-.81-262.27-.05-393.39.38-66.36,49.49-115.11,115.92-115.42,138.23-.64,276.46-.53,414.69-.03,54.83.2,97.36,33.53,111.91,84.79,2.05,7.23.48,15.22,5.04,21.8Zm-459.55,189.74c0,42.92.28,85.85-.21,128.77-.12,10.36,2.72,14.56,13.52,13.77,11.26-.82,22.7-.95,33.94.03,12.26,1.07,15.34-4.16,15.11-15.43-.55-26.4.21-52.83-.29-79.24-.2-10.52,3.49-13.86,13.99-13.62,27.82.64,55.67-.13,83.49.38,10,.18,13.57-3.66,13.2-13.19-.39-9.89-.54-19.84.06-29.71.69-11.31-4.37-14.66-15.11-14.46-27.35.5-54.73-.14-82.08.28-9.56.15-13.92-2.9-13.47-12.89.5-11.3.66-22.67-.08-33.95-.75-11.45,2.99-15.68,15.09-15.37,31.12.81,62.27.02,93.4.4,9.93.12,15.31-1.5,12.64-13.41-2.14-9.57-3.18-19.62-3-29.43.2-11.01-4.64-13.34-14.56-13.27-50.48.37-100.96.45-151.43-.05-11.08-.11-14.61,3.18-14.45,14.43.6,41.97.24,83.96.24,125.94Zm276.02,35.84c0-32.09-.23-64.17.15-96.25.11-9-2.85-13.06-12.07-12.83-13.68.34-27.37.13-41.05.2-6.93.03-10.23,3.42-10.22,10.51.07,64.64.1,129.29-.03,193.93-.02,8.85,4.3,11.29,12.37,11.05,12.73-.38,25.51-.64,38.21.07,10.22.57,12.93-3.68,12.8-13.24-.43-31.14-.16-62.28-.16-93.42Zm-67.39-142.68c.25,5.59,2.58,9.88,7.76,12.53,6.98,3.57,12.26-.33,16.01-5.17,11.89-15.31,26.42-19.92,44.59-12.88,7.67,2.97,14.85,3.4,19.62-5,4.86-8.55-1.69-13.65-6.71-17.98-13.78-11.87-17.51-25.6-11.14-42.67,2.68-7.17,4.14-15.37-4.73-19.74-8.45-4.16-14.94,1.06-19.47,7.2-10.55,14.31-23.76,16.95-39.69,11.11-2.64-.97-5.39-1.77-8.15-2.21-5.6-.89-10.46.71-13.25,5.88-2.41,4.48-2.64,9.91,1.17,13.21,17.63,15.24,26.62,32.46,14,55.7Z"/>
</svg>