<?xml version="1.0" encoding="UTF-8"?>
<svg id="Layer_1" data-name="Layer 1" xmlns="http://www.w3.org/2000/svg" viewBox="0 0 1080 1080">
  <defs>
    <style>
      .cls-1 {
        fill: #fff;
        stroke-width: 0px;
      }
    </style>
  </defs>
  <path class="cls-1" d="m596.62,648.98c-.12-7.22-.04-14.45-.04-21.68,0-7.45-.04-14.89.02-22.34.02-2.45-.56-3.42-2.92-1.76-.62.44-1.32.78-1.98,1.16-40.2,23.21-80.41,46.38-120.57,69.65-7.02,4.07-13.73,4.13-20.77.05-34.08-19.78-68.23-39.46-102.35-59.17-3.32-1.92-3.57-1.79-4.03,2.07-1.39,11.63-.8,23.15,1.9,34.55,9.92,41.78,46.47,74.87,95.13,75.63,17.38.27,33.83-4.17,48.96-12.88,34.54-19.88,69.02-39.85,103.56-59.71,2.33-1.34,3.12-2.98,3.08-5.56Z"/>
  <path class="cls-1" d="m414.62,465.62v5.91c0,19.16,0,38.32,0,57.48,0,2.13.07,4.03,2.33,5.32,13.03,7.43,26.01,14.94,38.98,22.47,1.86,1.08,2.84.99,2.75-1.44-.03-.98,0-1.97,0-2.96.02-39.09.05-78.18.07-117.27,0-6.9.16-13.8,0-20.69-.22-9.03,3.66-15.17,11.57-19.68,33.76-19.24,67.35-38.79,101.01-58.23q3.69-2.13.35-4.67c-37.46-28.4-90.39-26.01-125.13,5.93-20.22,18.6-31.2,41.75-31.76,69.35-.4,19.48-.08,38.98-.08,58.47h-.09Z"/>
  <path class="cls-1" d="m365.02,584.08c34.14,19.92,68.43,39.57,102.64,59.36,1.84,1.07,3.44,1.98,5.72.64,13.03-7.64,26.14-15.17,39.25-22.68,2.22-1.27,2.02-2.09-.07-3.27-6.96-3.93-13.86-7.96-20.78-11.96-33.95-19.59-67.88-39.21-101.85-58.75-4.87-2.8-8.7-6.4-9.94-12-.63-2.85-.7-5.87-.71-8.81-.06-18.4-.03-36.79-.03-55.19h.02c0-20.04-.02-40.08.02-60.12,0-4.2.11-4.2-3.72-2.59-45.2,18.99-69.38,68.92-56.18,116.39,7.17,25.81,22.56,45.5,45.65,58.97Z"/>
  <path class="cls-1" d="m593.39,505.56c-16.83-9.59-33.6-19.29-50.34-29.03-2.07-1.2-3.71-1.17-5.75.02-16.84,9.8-33.71,19.53-50.62,29.21-2.03,1.16-2.95,2.58-2.94,4.97.07,19.59.06,39.19,0,58.78,0,2.33.72,3.85,2.81,5.05,17,9.73,33.97,19.52,50.91,29.36,1.94,1.12,3.51,1.14,5.46,0,16.84-9.79,33.71-19.54,50.63-29.19,2.34-1.34,3.09-3.01,3.06-5.57-.1-9.63-.04-19.26-.04-28.9,0-9.63-.07-19.27.05-28.9.03-2.7-.79-4.42-3.23-5.81Z"/>
  <path class="cls-1" d="m483.75,430.92c.11,7.34.04,14.67.03,22.01,0,7.23,0,14.46,0,21.68,0,4.15.07,4.18,3.59,2.15,40.39-23.32,80.82-46.59,121.15-70.03,7.61-4.42,14.62-4.46,22.23-.03,33.68,19.62,67.47,39.05,101.23,58.54,3.41,1.97,3.95,1.7,4.39-2.19.99-8.74.83-17.44-.45-26.17-6.48-44.26-43.74-82.56-96.05-83.63-17.28-.35-33.68,3.89-48.73,12.52-34.86,19.99-69.63,40.13-104.46,60.16-2.04,1.18-2.96,2.59-2.92,4.98Z"/>
  <path class="cls-1" d="m857.73,340.7c-.19-61.56-49.88-111.22-111.39-111.4-137.96-.39-275.92-.29-413.88-.03-46.62.09-87.91,29.59-104.4,73.25-2.14,5.66-4.02,11.41-6.02,17.13v441.82c13,46.65,42.81,76.5,89.49,89.48h455.85c21.58-6.72,41.73-15.82,57.78-32.52,20.97-21.82,32.61-47.52,32.64-77.88.13-133.28.35-266.57-.07-399.85Zm-59.76,262.99c-8.2,51.58-47.93,94.46-98.86,106.76-3.36.81-5.07,2.24-6.33,5.52-16.04,41.81-45.6,69.23-88.4,82.37-7.87,2.42-16.01,3.51-24.12,4.71h-25.63c-3.02-.46-6.06-.85-9.07-1.38-29.11-5.06-53.93-18.19-74.3-39.63-1.8-1.9-3.65-2.42-6.15-1.95-14.87,2.8-29.76,3-44.72.58-79.57-12.87-129.54-91.96-106.79-169.27.8-2.72.12-4.4-1.55-6.44-28.06-34.35-38.5-73.5-27.73-116.52,12.97-51.81,46.16-85.03,98.15-98.8,2.49-.66,3.9-1.82,4.74-4.29,2.4-7.06,5.5-13.83,9.16-20.33,27.55-48.98,81.82-75.33,138.13-66.3,29.16,4.68,53.99,18.01,74.38,39.43,1.86,1.95,3.71,2.67,6.39,2.16,14.97-2.86,29.98-3,45.05-.54,79.14,12.89,129.12,92.06,106.54,168.94-.77,2.62-.46,4.37,1.29,6.49,26.16,31.68,36.3,67.86,29.83,108.49Z"/>
  <path class="cls-1" d="m661.55,544.93c-12.13-6.79-24.12-13.85-36.16-20.8-3.63-2.09-3.81-1.99-3.81,2.32-.01,19.6,0,39.21,0,58.81,0,26.5-.16,53.01.08,79.51.09,9.63-3.45,16.26-12.02,21.12-33.52,19.02-66.81,38.44-100.19,57.72-.76.44-1.53.86-2.27,1.32-1.14.7-1.17,1.48-.11,2.3.87.67,1.7,1.38,2.59,2.02,22.87,16.47,48.3,22.17,75.94,17.32,45.14-7.92,79.18-47.87,79.92-93.75.31-19.38.05-38.77.05-58.15h.06c0-20.81-.07-41.62.07-62.42.02-3.48-1.03-5.58-4.14-7.32Z"/>
  <path class="cls-1" d="m713.92,495.38c-33.83-19.55-67.69-39.05-101.49-58.65-2.32-1.35-4.08-1.23-6.32.08-12.47,7.3-25.01,14.47-37.52,21.69-3.46,2-3.46,2.14.13,4.22,14.02,8.11,28.05,16.2,42.08,24.3,26.73,15.44,53.44,30.9,80.19,46.3,4.91,2.83,8.46,6.66,9.5,12.3.53,2.88.56,5.88.56,8.83.05,17.95.02,35.9.03,53.86,0,20.14-.01,40.28.01,60.42,0,3.82.55,4.27,3.57,2.99,42.12-17.78,64.99-61.16,59.08-103.09-4.57-32.42-21.45-56.85-49.82-73.25Z"/>
</svg>