<?xml version="1.0" encoding="UTF-8"?>
<svg id="Layer_1" data-name="Layer 1" xmlns="http://www.w3.org/2000/svg" viewBox="0 0 1080 1080">
  <defs>
    <style>
      .cls-1 {
        fill: #fff;
        stroke-width: 0px;
      }
    </style>
  </defs>
  <path class="cls-1" d="m856.79,338.15v402.67c-2.35,3.56-3.23,7.52-3.76,11.73-5.72,45.54-40.92,83.8-85.29,92.82-6.7,1.36-14.02-.01-20.01,4.5h-416.69c-9.5-5.82-20.79-3.9-30.98-7.33-47.06-15.83-76.29-57.36-76.53-113.37-.54-126.67-.28-253.35.02-380.02.03-11.52,1.44-23.34,4.27-34.5,13.07-51.48,54.47-83.44,112.85-83.85,132.27-.92,264.55-.85,396.83-.05,58.75.36,100.55,32.85,114.04,84.55,1.98,7.58,0,16.07,5.26,22.85Zm-493.12,188.74c0,33.05-.46,66.11.11,99.16.87,50.98-9.28,41.84,44.85,43.07,11.54.26,15.87-4.42,15.64-15.63-.38-18.61.22-37.24-.11-55.86-.18-10.39,3.7-15.4,14.6-15.59,12.53-.22,25.05-1.45,37.55-2.57,52.48-4.69,88.89-42.04,90.44-92.63,1.6-52.03-31.93-91.36-84.73-99.13-34.29-5.04-68.64-3.06-103.06-1-12.33.74-15.61,5.73-15.47,17.28.5,40.96.2,81.93.17,122.9Zm312.76-74.87c-2.82,0-9.83-.42-16.77.07-31.98,2.24-59.87,24.15-65.92,51.48-6.89,31.13,5.53,56.25,37.44,73.36,13.48,7.23,28.01,12.48,41.84,19.1,6.64,3.18,14.97,7,13.39,15.75-1.69,9.38-10.73,10.16-18.91,10.7-22.32,1.47-43.56-2.56-63.63-12.35-7.92-3.86-12.79-2.36-13.04,6.94-.32,11.62-.18,23.25.1,34.88.18,7.51,4.88,11.79,11.63,14.01,34.54,11.36,69.38,13.79,103.85.73,25.27-9.57,39.69-28.76,41.95-55.88,2.27-27.21-10.97-46.01-33.87-59.29-14.98-8.69-31.51-13.8-46.96-21.35-7.34-3.59-17.36-6.7-15.53-17.11,1.95-11.13,13.17-9.79,21.49-11.53,2.2-.46,4.66-.06,6.94.32,14.64,2.46,29.57,3.64,43.38,9.83,10.1,4.53,13.7-.07,13.59-9.86-.09-8.84-.52-17.72.15-26.52.89-11.66-5.18-16.95-15.44-19.54-13.65-3.45-27.5-4.51-45.68-3.74Z"/>
  <path class="cls-1" d="m424.28,485.01c0-8.83.38-17.67-.1-26.48-.6-11.08,3.9-16.71,15.25-16.4,9.75.27,19.58-.31,29.23.78,21.49,2.42,34.48,16.06,36.67,37.3,2.03,19.75-8.66,35.52-28.69,42.51-13.42,4.68-27.26,5.16-41.25,4.5-7.4-.35-10.95-4.31-10.99-11.55-.05-10.22-.01-20.44-.01-30.66-.03,0-.07,0-.1,0Z"/>
</svg>