<?xml version="1.0" encoding="UTF-8"?>
<svg id="Layer_1" data-name="Layer 1" xmlns="http://www.w3.org/2000/svg" viewBox="0 0 1080 1080">
  <defs>
    <style>
      .cls-1 {
        fill: #fff;
        stroke-width: 0px;
      }
    </style>
  </defs>
  <path class="cls-1" d="m856.98,335.47v408.26c-1.22,3.44-2.97,6.79-3.58,10.33-8.59,49.89-42.3,83.61-92.33,92.37-3.55.62-6.91,2.35-10.36,3.56h-422.29c-3.01-1.16-5.93-2.81-9.05-3.4-59.29-11.22-95.52-53.22-95.82-114.41-.63-128.59-.79-257.19.06-385.78.45-67.81,46.79-115.06,114.4-115.62,134.19-1.11,268.4-.92,402.59-.07,60.64.38,102.02,36.91,112.95,95.75.58,3.11,2.25,6.02,3.42,9.02Zm-378.89,266.34c7.92,0,15.84,0,23.76,0,26.17.01,25.84.13,34.86,25.33,17.29,48.32,4.8,40.77,59.86,41.45.93.01,1.86,0,2.79-.07,13.63-.86,15.7-3.56,11.24-16.6-8-23.35-16.41-46.56-24.64-69.83-21.29-60.15-42.59-120.29-63.84-180.45-2.85-8.07-5.31-16.23-16.3-16.16-17.7.12-35.4,0-53.1.1-6.22.04-10.77,2.55-12.07,9.25-8.29,42.76-26.22,82.42-39.86,123.45-14.69,44.19-30.4,88.04-45.48,132.1-5.07,14.82-3.11,17.64,11.99,18.12,9.31.29,18.65-.31,27.95.14,11.22.54,17.18-4.78,20.02-15.24,2.8-10.33,6.23-20.5,9.53-30.68q6.77-20.84,28.14-20.9c8.39-.03,16.77,0,25.16,0Zm225.4-40.04h.05c0-27.92.07-55.84-.02-83.76-.07-22.2-.95-23.04-22.5-23.13-8.84-.04-17.69.25-26.52.07-9.42-.19-13.46,4.32-13.45,13.57.09,62.35.09,124.71.02,187.06-.01,9.43,4.54,13.49,13.73,13.36,10.24-.14,20.51-.5,30.7.19,13.4.91,18.3-5.04,18.12-18.02-.42-29.78-.13-59.56-.13-89.34Zm-31.18-127.63c20.05.01,34.13-14.23,34.07-34.47-.06-19.54-13.96-33.69-33.3-33.88-19.78-.2-34.61,14.33-34.8,34.09-.2,20.29,13.67,34.25,34.03,34.27Z"/>
  <path class="cls-1" d="m481.13,449.52c8.73,28.21,17.56,56.39,26.12,84.66,2.3,7.59-2.5,10.23-9.03,10.32-12.54.19-25.09.16-37.63,0-5.85-.07-10.79-2.38-8.8-9.22,8.35-28.71,17.16-57.29,25.79-85.91,1.18.05,2.37.1,3.55.15Z"/>
</svg>