<?xml version="1.0" encoding="UTF-8"?>
<svg id="Layer_1" data-name="Layer 1" xmlns="http://www.w3.org/2000/svg" viewBox="0 0 1080 1080">
  <defs>
    <style>
      .cls-1 {
        fill: #fff;
        stroke-width: 0px;
      }
    </style>
  </defs>
  <path class="cls-1" d="m851.53,315.3c-13.48-51.7-55.29-84.19-114.04-84.55-132.27-.8-264.56-.87-396.83.05-58.38.41-99.78,32.37-112.85,83.85-2.83,11.16-4.25,22.98-4.27,34.49-.3,126.68-.56,253.35-.02,380.03.24,56.01,29.46,97.54,76.53,113.37,10.2,3.43,21.48,1.51,30.99,7.34h416.69c5.99-4.51,13.31-3.13,20.01-4.5,44.37-9.03,79.57-47.29,85.29-92.82.53-4.22,1.41-8.17,3.76-11.73v-402.67c-5.27-6.79-3.29-15.27-5.27-22.85Zm-289.3,315.87c-6.35,41.09-6.12,41.13-47.67,41.12-44.88,0-89.76-.3-134.64.22-10.63.12-13.88-3.29-13.78-13.77.45-45.88.19-91.77.19-137.65,0-45.38.34-90.77-.24-136.14-.14-11.28,3.1-15.36,14.5-14.4,11.02.93,22.25,1.02,33.25-.02,12.43-1.18,15.15,3.92,15.07,15.45-.45,70.59.14,141.19-.54,211.77-.13,13.92,3.81,18.21,17.73,17.85,34.27-.9,68.58.22,102.86-.55,13.07-.29,15.02,4.8,13.27,16.11Zm170.72-134.88c-5.58,9.93-21.16,4.1-32.02,7.02-4.86,1.31-9.79,2.41-14.57,3.96-24.1,7.82-26.59,11.27-26.59,36.21,0,38.33-.43,76.66.25,114.97.21,11.58-3.54,15.04-14.68,14.16-11.53-.91-23.23-.84-34.77-.01-10.64.76-13.72-3.01-13.65-13.6.37-60,.05-120.01-.06-180.02-.01-5.55.75-11.35-.58-16.59-3.96-15.48,1.27-21.5,17.08-18.92,4.42.72,9.06.11,13.6.11q27.02,0,30.81,26.87c6.07-.94,8.32-5.35,11.7-8.15,11.39-9.43,23.73-17.13,38.15-20.88,24.17-6.27,27.05-4.01,26.96,20.69-.04,11.58,3.37,25.29-1.63,34.18Z"/>
</svg>