<?xml version="1.0" encoding="UTF-8"?>
<svg id="Layer_1" data-name="Layer 1" xmlns="http://www.w3.org/2000/svg" viewBox="0 0 1080 1080">
  <defs>
    <style>
      .cls-1 {
        fill: #fff;
        stroke-width: 0px;
      }
    </style>
  </defs>
  <path class="cls-1" d="m856.74,311.54c-13.71-52.57-56.21-85.6-115.94-85.96-134.48-.81-268.98-.88-403.46.05-59.36.41-101.44,32.91-114.74,85.25-2.88,11.34-4.32,23.36-4.35,35.07-.3,128.79-.57,257.59-.02,386.38.24,56.95,29.96,99.18,77.81,115.27,10.37,3.49,21.84,1.54,31.5,7.46h423.66c6.1-4.59,13.53-3.19,20.35-4.57,45.12-9.18,80.9-48.08,86.72-94.38.54-4.29,1.43-8.31,3.82-11.93v-409.41c-5.36-6.9-3.34-15.52-5.35-23.23Zm-99.94,239.62c-18.98,5.61-37.67,12.02-55.3,21.13-73.28,37.83-122.41,96.03-147.14,174.75-1.32,4.19-2.54,8.41-3.98,12.56-1.58,4.57-4.85,7.4-9.72,7.65-5.44.28-8.97-2.82-10.91-7.61-1.22-3.04-1.82-6.32-2.82-9.46-32.06-100.57-98.45-166.51-199.42-197.48-6.81-2.09-14.32-3.71-14.4-12.53-.08-8.87,7.43-10.59,14.22-12.68,101.83-31.27,168.28-98.06,199.98-199.58,2.22-7.12,3.62-14.54,13.03-15.15,8.45.72,10.51,7.04,12.26,13.58,7.94,29.6,20.66,57.03,37.56,82.56,39.17,59.2,93.37,97.98,160.97,118.57,1.75.53,3.53.97,5.3,1.44,5.75,1.52,10.32,4.42,10.45,11,.13,6.62-4.38,9.58-10.09,11.26Z"/>
</svg>