<?xml version="1.0" encoding="utf-8"?>
<!-- Generator: Adobe Illustrator 27.9.0, SVG Export Plug-In . SVG Version: 6.00 Build 0)  -->
<svg version="1.1" id="Layer_1" xmlns="http://www.w3.org/2000/svg" xmlns:xlink="http://www.w3.org/1999/xlink" x="0px" y="0px"
	 viewBox="0 0 1080 1080" style="enable-background:new 0 0 1080 1080;" xml:space="preserve">
<style type="text/css">
	.st0{fill:#1A1A1A;}
	.st1{fill:#FFFFFF;}
</style>
<g>
	<g>
		<g>
			<polygon class="st1" points="870.2,637.09 828.92,637.09 828.92,382.85 870.2,375.35 			"/>
		</g>
	</g>
	<g>
		<path class="st1" d="M571.85,475.95L434.05,427.7l-13.64,38.96l135.28,47.37c9.03,3.16,15.07,11.68,15.07,21.25v39.37
			c0,12.44-10.08,22.52-22.52,22.52h-10.91l7.12-40.29c4.87-27.52-16.24-52.78-44.19-52.88l-117.65-0.41l-8.52,48.51
			c-3.22,18.34,5.13,35.61,19.29,45.15h-69.04v-92.27l-41.28,7.51v128.36c0,12.44-10.08,22.52-22.52,22.52h-43.24l-7.51,41.28h54.5
			c33.16,0,60.05-26.88,60.05-60.05v-6.06h66.63l10.13-37.13c5.32,2.23,11.15,3.52,17.35,3.52h71.81l-9.14,33.52H552
			c33.16,0,60.05-26.88,60.05-60.05v-45.79C612.05,507.11,595.93,484.38,571.85,475.95z M415.51,554.3l2.36-9.3l77.92,0.27
			c4.89,0.02,8.46,4.63,7.25,9.37l-2.31,9.01h-77.93C417.9,563.65,414.31,559.04,415.51,554.3z"/>
	</g>
	<g>
		<path class="st1" d="M737.97,494.41h-34.89c-33.16,0-60.05,26.88-60.05,60.05v82.33h106.04l7.63-41.28h-72.39v-37.29
			c0-12.44,10.08-22.52,22.52-22.52h27.39c12.44,0,22.52,10.08,22.52,22.52l-0.39,86.76c-1.94,10.47-11.1,18.41-22.13,18.41h-81.73
			l-7.51,41.28h92.99c33.16,0,60.05-26.88,60.05-60.05v-90.15C798.02,521.29,771.13,494.41,737.97,494.41z"/>
	</g>
</g>
</svg>
