<?xml version="1.0" encoding="utf-8"?>
<!-- Generator: Adobe Illustrator 27.9.0, SVG Export Plug-In . SVG Version: 6.00 Build 0)  -->
<svg version="1.1" id="Layer_1" xmlns="http://www.w3.org/2000/svg" xmlns:xlink="http://www.w3.org/1999/xlink" x="0px" y="0px"
	 viewBox="0 0 1080 1080" style="enable-background:new 0 0 1080 1080;" xml:space="preserve">
<style type="text/css">
	.st0{fill:#1A1A1A;}
	.st1{fill:#FFFFFF;}
</style>
<g>
	<g>
		<path class="st1" d="M225.09,398.14c0.8-0.11,1.19-0.22,1.57-0.22c209.14,0.02,418.28,0.04,627.41,0.08
			c0.17,0,0.35,0.17,0.52,0.25c0.09,0.17,0.25,0.35,0.25,0.52c0.03,93.93,0.05,187.87,0.07,281.8c0,0.39-0.1,0.77-0.14,1.03
			c-0.21,0.19-0.27,0.28-0.36,0.33c-0.09,0.05-0.19,0.06-0.29,0.07c-0.61,0.03-1.22,0.08-1.83,0.08
			c-208.73-0.01-417.46-0.03-626.2-0.05c-0.19,0-0.37-0.11-0.78-0.25c-0.07-0.47-0.2-1.04-0.22-1.61c-0.04-0.91-0.02-1.83-0.02-2.75
			c0-91.59,0-183.19,0-274.78C225.09,401.22,225.09,399.81,225.09,398.14z M372.72,601.78c0.97,0.34,1.63,0.6,2.3,0.81
			c20.62,6.47,41.64,11.06,63.11,13.58c11.23,1.32,22.48,2.17,33.78,2.4c17.32,0.35,34.59-0.46,51.78-2.61
			c10.8-1.35,21.53-3.19,32.14-5.6c10.61-2.41,21.1-5.28,31.36-8.93c1.95-0.7,3.19-1.75,4.07-3.68c4.58-9.98,9.3-19.9,13.98-29.84
			c0.47-1,0.99-1.98,1.55-3.09c0.83,0.06,1.58,0.12,2.41,0.18c0.68,5.75,1.35,11.3,2,16.85c0.63,5.35,1.26,10.71,1.87,16.07
			c0.1,0.85,0.36,1.57,0.95,2.18c3.21,3.32,6.7,6.24,11.01,8.04c3.65,1.52,7.4,2.09,11.34,1.27c3.14-0.65,5.98-1.94,8.65-3.67
			c3.53-2.29,6.53-5.19,9.26-8.35c4.96-5.73,8.89-12.14,12.35-18.84c0.79-1.54,1.51-3.11,2.29-4.65c0.63-1.24,0.65-1.23,2.49-0.71
			c1.35,10.11,2.7,20.28,4.05,30.42c1.29,0.91,2.43,1.77,3.63,2.53c0.94,0.59,1.94,1.11,2.96,1.58c5.44,2.52,10.98,2.76,16.6,0.67
			c4.78-1.78,8.8-4.61,12.02-8.59c6.78-8.4,9.77-18.17,10.41-28.79c0.4-6.64-0.13-13.23-1.35-19.75
			c-3.24-17.37-9.79-33.53-18.27-48.95c-0.21-0.38-0.58-0.68-0.89-1.03c-0.28,0.31-0.49,0.44-0.54,0.61
			c-3.52,11.79-7.03,23.57-10.54,35.36c-0.03,0.09,0,0.2,0.03,0.29c0.03,0.1,0.08,0.19,0.18,0.42c4.84,2.14,7.87,6.12,9.94,10.93
			c0.76,1.77,1.4,3.61,1.91,5.46c1.64,5.92,2.3,11.98,2.34,18.1c0.01,0.69-0.08,1.37-0.12,2.04c-0.46,0.16-0.74,0.34-1.01,0.34
			c-6.96-0.16-12.86-2.71-17.54-7.93c-2.4-2.68-4.29-5.71-5.55-9.06c-1-2.66-1.71-5.42-2.56-8.13c-0.06-0.18-0.22-0.32-0.39-0.57
			c-0.82,0-1.69,0-2.54,0c-0.65,0.96-1.23,1.79-1.79,2.64c-2.24,3.4-4.32,6.92-6.74,10.18c-7.66,10.32-17.89,14.74-30.65,12.61
			c-8.41-1.4-14.21-6.17-17.13-14.28c-1.03-2.87-2.08-5.74-3.14-8.6c-0.35-0.94-0.76-1.85-1.14-2.76c-1.27,0-2.36,0-3.2,0
			c-2.2,2.23-4.15,4.31-6.21,6.28c-5.22,5.01-10.92,9.45-16.73,13.76c-1.33,0.99-2.76,1.63-4.36,2.08
			c-24.39,6.94-49.09,12.32-74.3,15.28c-8.59,1.01-17.21,1.81-25.85,2.13c-16.6,0.61-33.16,0.25-49.63-2.21
			c-10.18-1.52-20.21-3.65-29.99-6.85c-6.87-2.25-13.55-4.96-19.84-8.58c-1.3-0.75-2.13-1.71-2.63-3.16
			c-1.96-5.67-4.03-11.3-6.08-16.94c-0.31-0.84-0.69-1.66-1.05-2.52c-1.34,0-2.53,0-3.79,0c-0.49,0.86-0.93,1.65-1.4,2.43
			c-4.6,7.68-10.77,13.82-18.62,18.06c-8.27,4.46-17.26,6.62-26.63,7.03c-13.17,0.57-25.66-2.27-37.54-7.89
			c-0.99-0.47-1.93-1.05-2.95-1.61c-0.05-2.39-0.09-4.62-0.13-6.85c-0.04-2.34-0.07-4.68-0.11-7.02c-0.04-2.24-0.08-4.48-0.14-6.71
			c-0.06-2.34-0.17-4.68-0.23-7.02c-0.06-2.24-0.09-4.48-0.12-6.71c-0.04-2.34-0.06-4.68-0.11-7.02c-0.04-2.24-0.08-4.48-0.14-6.71
			c-0.07-2.34-0.17-4.68-0.23-7.02c-0.06-2.24-0.09-4.48-0.12-6.71c-0.04-2.34-0.07-4.68-0.11-7.02c-0.04-2.24-0.08-4.48-0.14-6.71
			c-0.06-2.34-0.17-4.68-0.23-7.02c-0.06-2.24-0.09-4.48-0.13-6.71c-0.04-2.34-0.07-4.68-0.11-7.02c-0.04-2.24-0.08-4.48-0.14-6.71
			c-0.06-2.34-0.17-4.68-0.23-7.02c-0.06-2.24-0.09-4.48-0.13-6.71c-0.04-2.34-0.07-4.68-0.11-7.02c-0.04-2.24-0.01-4.48-0.16-6.71
			c-0.15-2.27,0.09-4.59-0.54-7.26c-0.58,0.68-0.92,1.01-1.18,1.39c-8.23,11.75-16.43,23.52-24.7,35.24
			c-0.85,1.21-1.02,2.36-0.75,3.72c0.52,2.59,0.99,5.19,1.47,7.79c2.12,11.5,4.24,23,6.35,34.5c2.33,12.7,4.65,25.41,6.99,38.11
			c2.57,14,5.15,28.01,7.73,42.01c0.42,2.29,0.89,4.57,1.3,6.66c3.26,2.08,6.24,3.47,10.17,4.75c8.71,2.84,17.7,3.7,26.8,3.53
			c8.97-0.17,17.85-1.29,26.64-3.11c3.17-0.66,6.39-1.21,9.45-2.42c0.4-0.73,0.81-1.43,1.18-2.15
			c5.12-10.06,10.24-20.12,15.36-30.18c0.51-1,1-2,1.57-2.97c0.49-0.84,1.24-0.91,2.33-0.43c0.54,3.95,0.51,8.02,0.88,12.05
			c0.39,4.15,0.54,8.32,0.81,12.49C372.14,593.49,372.43,597.54,372.72,601.78z M733.36,584.92c3.34,2.49,6.75,4.28,10.31,5.78
			c6.86,2.9,13.99,4.14,21.45,3.53c4.28-0.35,8.44-1.29,12.59-2.25c2-0.46,4-0.71,6.05-0.51c3.79,0.38,5.91,2.28,6.88,6.31
			c-0.43,0.32-0.88,0.72-1.38,1.03c-5.3,3.23-10.8,6.1-16.43,8.72c-16.09,7.47-32.82,13.15-49.95,17.66
			c-12.79,3.37-25.72,6.07-38.89,7.51c-2.53,0.28-5.06,0.51-7.59,0.79c-0.43,0.05-1.04-0.08-1.18,0.59
			c0.14,0.17,0.23,0.37,0.39,0.47c8.94,5.27,17.87,10.53,26.83,15.77c0.59,0.34,1.32,0.52,2,0.61c1.11,0.14,2.23,0.16,3.35,0.18
			c7.55,0.13,15.03-0.54,22.45-1.94c21.77-4.12,41.03-13.46,57.99-27.65c2.68-2.25,4.88-4.89,6.71-7.86
			c2.63-4.29,4.38-8.94,5.6-13.8c2.47-9.85,3.07-19.88,2.69-29.98c-0.19-4.98-0.36-9.97-1.45-14.86
			c-3.03-13.58-10.03-24.54-21.4-32.65c-2.58-1.84-5.35-3.32-8.39-4.28c-3.49-1.11-6.99-1.3-10.5-0.14
			c-2.95,0.98-5.45,2.7-7.65,4.88c-2.63,2.6-4.7,5.61-6.49,8.82c-2.53,4.55-4.46,9.35-6.09,14.29c-3.16,9.59-5.2,19.44-6.68,29.41
			C734.13,578.45,733.79,581.59,733.36,584.92z M837.56,449.78c-1.72,0.66-2.76,1.04-3.8,1.45c-30.8,12.45-61.59,24.9-92.39,37.35
			c-8.48,3.43-16.96,6.84-25.42,10.31c-0.75,0.31-1.78,0.36-2.23,1.31c0.3,0.17,0.45,0.33,0.62,0.35c6.49,0.44,12.99,0.83,19.48,1.3
			c1.98,0.14,3.78-0.21,5.62-0.95c15.84-6.36,31.7-12.65,47.56-18.96c13.02-5.18,26.04-10.4,39.09-15.51
			c1.92-0.75,3.22-1.86,4.2-3.66c1.94-3.57,4.06-7.04,6.09-10.57C836.73,451.61,836.99,450.98,837.56,449.78z M359.05,546.5
			c1.31-1.03,1.9-2.33,2.61-3.53c2.3-3.89,4.04-7.99,4.32-12.57c0.3-4.79-1.34-8.78-5.02-11.89c-0.85-0.72-1.78-1.36-2.71-1.98
			c-3.75-2.48-7.8-4.36-12.03-5.88c-0.37-0.13-0.77-0.17-1.34-0.29c-0.76,0.94-1.53,1.86-2.28,2.81c-2.26,2.88-4.47,5.81-6.79,8.63
			c-1.5,1.82-3.12,1.96-5.13,0.7c-0.52-0.32-0.99-0.71-1.49-1.06c-5.14-3.66-10.27-7.32-15.42-10.97c-0.65-0.46-1.35-0.86-1.95-1.24
			c-6.61,2.4-11.04,8.25-11.2,14.81c7.9,5.16,15.87,10.37,24.02,15.58c0.78-0.9,1.46-1.64,2.09-2.42c2.53-3.06,5.02-6.15,7.57-9.18
			c1.8-2.14,3.1-2.46,5.62-1.29c5.31,2.47,10.09,5.71,14.02,10.1c2.2,2.46,3.93,5.18,4.56,8.5
			C358.59,545.69,358.83,546.02,359.05,546.5z"/>
	</g>
</g>
</svg>
