<?xml version="1.0" encoding="utf-8"?>
<!-- Generator: Adobe Illustrator 27.9.0, SVG Export Plug-In . SVG Version: 6.00 Build 0)  -->
<svg version="1.1" id="Layer_1" xmlns="http://www.w3.org/2000/svg" xmlns:xlink="http://www.w3.org/1999/xlink" x="0px" y="0px"
	 viewBox="0 0 1080 1080" style="enable-background:new 0 0 1080 1080;" xml:space="preserve">
<style type="text/css">
	.st0{fill:#1A1A1A;}
	.st1{fill:#FFFFFF;}
</style>
<g>
	<g>
		<path class="st1" d="M514.25,671.64c-3.36,0-5.99,0-9.2,0c0-2.23,0-4.18,0-6.12c0-17.37,0.11-34.75-0.04-52.12
			c-0.24-27.67-23.03-49.73-50.69-48.91c-14.03,0.42-25.65,6.51-35.49,16.36c-24.55,24.59-49.03,49.25-73.78,73.64
			c-16.55,16.31-36.38,21.84-58.58,14.39c-22.16-7.44-35.55-23.29-39.93-46.39c-0.73-3.86-1.04-7.85-1.07-11.79
			c-0.11-17.19,0.03-34.38-0.1-51.58c-0.02-3.36,1.24-4.42,4.43-4.43c3.24,0,4.91,0.7,4.89,4.52c-0.1,19.34-0.49,38.71,0.27,58.03
			c0.79,20.03,15.82,39.48,38.63,44.42c19.11,4.13,34.52-3.4,47.6-16.09c23.89-23.19,47.32-46.87,70.73-70.54
			c12.57-12.71,27.39-19.9,45.37-19.74c26.47,0.25,51.55,21.93,55.8,48.14c0.72,4.41,1.07,8.93,1.1,13.4
			C514.32,634.92,514.25,652.99,514.25,671.64z"/>
		<path class="st1" d="M305.36,676.17c-6.57,0-13.31-1.14-20.17-3.44c-23.21-7.79-37.95-24.89-42.62-49.47
			c-0.73-3.83-1.11-8.04-1.13-12.52c-0.06-8.34-0.05-16.67-0.05-25.01c0-8.85,0.01-17.71-0.06-26.56c-0.01-1.02-0.03-4.12,2.14-6.32
			c1.95-1.96,4.55-2.19,6.33-2.19c2.25,0,4.82,0.26,6.76,2.22c1.48,1.49,2.19,3.57,2.18,6.37l-0.08,11.36
			c-0.13,15.26-0.26,31.04,0.34,46.49c0.76,19.26,15.67,36.34,35.45,40.62c15.64,3.39,30.01-1.53,43.93-15.03
			c23.87-23.16,47.66-47.22,70.67-70.48c13.91-14.07,30.19-21.06,48.29-20.94c28.38,0.26,55.19,23.38,59.76,51.54
			c0.74,4.55,1.13,9.26,1.15,14.03c0.09,13.2,0.08,26.39,0.06,39.82l-0.01,19.05H501l0.02-26.3c0.02-11.99,0.04-23.97-0.06-35.96
			c-0.11-12.33-5.04-23.8-13.88-32.32c-8.81-8.47-20.38-12.93-32.63-12.57c-12.2,0.36-22.92,5.33-32.75,15.17l-15.63,15.67
			c-19.33,19.39-38.67,38.78-58.18,58C335.25,669.84,320.8,676.17,305.36,676.17z M249.43,558.76c0,0.1,0,0.21,0,0.34
			c0.06,8.87,0.06,17.75,0.06,26.62c0,8.32-0.01,16.64,0.05,24.96c0.02,3.99,0.36,7.71,0.99,11.06
			c4.15,21.84,16.68,36.41,37.25,43.3c20.21,6.78,38.53,2.26,54.45-13.43c19.49-19.2,38.81-38.58,58.13-57.95L415.97,578
			c11.21-11.22,24.07-17.13,38.23-17.55c14.5-0.47,28.1,4.84,38.49,14.84c10.43,10.04,16.24,23.56,16.37,38.08
			c0.1,12.01,0.08,24.03,0.06,36.04l-0.02,18.18h1.1l0.01-10.96c0.01-13.4,0.03-26.58-0.06-39.76c-0.03-4.35-0.38-8.65-1.05-12.78
			c-3.96-24.44-27.22-44.51-51.84-44.73c-15.82-0.15-29.98,5.91-42.46,18.53c-23.04,23.29-46.86,47.38-70.79,70.6
			c-16.01,15.53-32.78,21.14-51.28,17.14c-23.33-5.05-40.93-25.33-41.82-48.22c-0.61-15.64-0.48-31.52-0.35-46.87l0.08-11.34
			c0-0.16,0-0.3-0.01-0.42C250.34,558.76,249.81,558.74,249.43,558.76z"/>
	</g>
	<g>
		<path class="st1" d="M245.43,408.93c3.25,0,5.88,0,9.19,0c0,3.02-0.01,5.86,0,8.69c0.1,17.72-0.3,35.47,0.43,53.16
			c1.08,26.3,24.17,45.47,46.64,45.63c15.89,0.12,28.47-6.16,39.19-16.61c25.4-24.76,49.97-50.36,75.65-74.82
			c16.33-15.55,36.38-19.74,57.82-12.24c21.41,7.5,35.03,22.85,38.56,45.37c1.88,12.02,1.08,24.47,1.31,36.72
			c0.17,8.86-0.05,17.73,0.07,26.6c0.05,3.25-0.65,4.99-4.46,5.04c-3.99,0.05-4.86-1.62-4.83-5.2c0.13-17.19,0.09-34.38,0.05-51.57
			c-0.06-25.49-15.05-45.14-39.8-50.17c-17.86-3.63-33.38,2.21-46.3,15.23c-24.48,24.66-49.06,49.22-73.74,73.67
			c-16.55,16.39-36.54,21.53-58.5,14.48c-22.2-7.12-36.28-23.01-39.92-46.2c-1.94-12.37-1.1-25.19-1.31-37.81
			C245.29,429.02,245.43,419.11,245.43,408.93z"/>
		<path class="st1" d="M509.54,530.54c-1.32,0-4.23-0.15-6.31-2.23c-2.05-2.04-2.29-4.85-2.28-7.07
			c0.12-16.41,0.09-32.82,0.05-49.24l0-2.29c-0.05-23.93-14.06-41.63-36.56-46.21c-15.78-3.18-30.14,1.54-42.62,14.12
			c-24.49,24.66-49.08,49.23-73.77,73.69c-17.73,17.56-39.37,22.91-62.59,15.46c-24.06-7.72-38.82-24.81-42.69-49.42
			c-1.46-9.29-1.4-18.81-1.34-28.02c0.02-3.46,0.04-6.91-0.02-10.35c-0.12-6.88-0.09-13.76-0.06-20.73l0.02-13.37h17.29v12.72
			c0.03,5.45,0.01,10.89,0,16.34c-0.04,12.04-0.08,24.5,0.43,36.68c1.02,24.79,22.87,41.6,42.63,41.75
			c13.73,0.21,25.56-4.95,36.33-15.46c10.8-10.52,21.44-21.2,32.08-31.87c14.16-14.21,28.81-28.89,43.6-42.98
			c17.48-16.66,38.91-21.19,61.95-13.13c23.27,8.15,37.52,24.94,41.22,48.57c1.41,9,1.37,18.23,1.33,27.15
			c-0.02,3.38-0.03,6.76,0.03,10.13c0.09,4.71,0.07,9.41,0.05,14.11c-0.02,4.17-0.03,8.34,0.03,12.5c0.08,5.99-2.77,9.07-8.46,9.15
			C509.79,530.53,509.67,530.54,509.54,530.54z M454.87,414.41c3.65,0,7.37,0.38,11.18,1.15c26.09,5.3,42.99,26.55,43.05,54.13
			l0,2.29c0.04,16.44,0.07,32.88-0.05,49.32c0,0.52,0.02,0.89,0.04,1.13c0.12-0.01,0.31,0,0.54,0c0.2,0,0.44,0,0.6-0.02
			c0.02-0.22,0.02-0.51,0.02-0.91c-0.06-4.22-0.04-8.43-0.02-12.65c0.02-4.64,0.04-9.29-0.05-13.93c-0.06-3.43-0.05-6.87-0.03-10.31
			c0.04-8.6,0.08-17.49-1.23-25.86c-3.21-20.49-15.62-35.07-35.89-42.18c-19.98-6.98-38.54-3.07-53.69,11.35
			c-14.71,14.01-29.32,28.66-43.45,42.83c-10.67,10.7-21.35,21.4-32.16,31.95c-12.38,12.07-25.89,17.65-42.05,17.76
			c-23.48-0.18-49.45-20.12-50.66-49.52c-0.51-12.36-0.47-24.9-0.43-37.04c0.02-5.43,0.04-10.85,0-16.27l0-4.67h-1.1l-0.01,5.31
			c-0.03,6.92-0.06,13.74,0.06,20.56c0.06,3.5,0.04,7.02,0.02,10.53c-0.05,8.89-0.11,18.07,1.25,26.72
			c3.35,21.39,16.2,36.25,37.16,42.97c20.44,6.56,38.74,2.02,54.41-13.51c24.67-24.44,49.25-48.99,73.72-73.64
			C427.63,420.27,440.64,414.41,454.87,414.41z"/>
	</g>
	<g>
		<path class="st1" d="M824.42,498.22c-12.98,0-25.99,0-39,0c-12.12,0-24.25,0.11-36.37-0.06c-3.6-0.05-5.5,1.13-6.87,4.57
			c-2.8,7.04-6.33,13.79-9.2,20.8c-1.61,3.93-4.54,5.02-7.65,3.38c-1.16-0.61-1.52-4.86-0.69-6.78c12.61-29,25.65-57.81,38.2-86.83
			c4.09-9.45,9.38-17.46,18.75-22.22c22.08-11.22,48.11,2.02,52.06,26.51c0.54,3.36,0.89,6.79,0.9,10.18
			c0.08,24.61,0.02,49.21,0.06,73.82c0.01,3.27,0.2,6.05-4.59,6c-4.56-0.05-5.57-2.54-5.6-6.15
			C824.37,513.96,824.42,506.46,824.42,498.22z M748.42,488.98c23.95,0,46.51,0.12,69.07-0.11c4.22-0.04,6.89-2.97,6.9-7.53
			c0.02-14.46,0-28.92-0.07-43.38c-0.01-1.23-0.32-2.51-0.74-3.67c-4.12-11.17-12.45-16.93-24.03-18.17
			c-9.78-1.05-20.69,5.01-25.28,14.58c-5.53,11.54-10.45,23.37-15.63,35.07C755.39,473.14,752.15,480.51,748.42,488.98z"/>
		<path class="st1" d="M728.03,531.7c-1.51,0-3.06-0.4-4.59-1.21c-3.84-2.02-3.8-9-2.51-11.98c5.92-13.6,11.93-27.17,17.94-40.73
			c6.8-15.34,13.6-30.69,20.26-46.09c3.54-8.19,9.09-18.36,20.63-24.22c11.68-5.94,24.98-5.99,36.49-0.14
			c11.51,5.85,19.31,16.65,21.4,29.62c0.63,3.93,0.95,7.47,0.95,10.82c0.04,14.32,0.04,28.64,0.05,42.96l0.02,30.86
			c0.01,2.7,0.02,5.63-2.21,7.85c-1.52,1.51-3.41,2.31-6.47,2.2c-3.55-0.04-9.52-1.4-9.6-10.15c-0.05-5.3-0.04-10.61-0.03-16.18
			l0-3.05l-44.6,0.02c-8.91,0.04-17.84,0.04-26.76-0.08c-1.96,0.04-2.33,0.2-3.05,2.02c-1.49,3.75-3.19,7.41-4.88,11.08
			c-1.49,3.23-2.99,6.47-4.34,9.76c-1.59,3.9-4.05,5.49-5.83,6.13C729.97,531.54,729.01,531.7,728.03,531.7z M828.76,523.4
			c0.04,0,0.52,0.15,1.4,0.15c0.15,0,0.28,0,0.39-0.01c0.03-0.47,0.02-1.09,0.02-1.56l-0.02-31.25c0-14.31,0-28.62-0.05-42.94
			c-0.01-2.92-0.28-6.05-0.85-9.55c-1.68-10.38-7.9-19.02-17.08-23.69c-9.17-4.67-19.8-4.6-29.15,0.14
			c-7.3,3.71-12.34,9.76-16.86,20.21c-6.67,15.43-13.48,30.8-20.29,46.16c-6,13.54-12.01,27.09-17.91,40.68
			c-0.12,0.34-0.15,1.09-0.1,1.76c0.23-0.17,0.6-0.62,0.97-1.51c1.39-3.4,2.94-6.75,4.48-10.1c1.63-3.53,3.27-7.06,4.71-10.68
			c1.96-4.93,5.34-7.09,10.68-7.13c8.89,0.13,17.76,0.11,26.64,0.08l52.73-0.02l-0.01,11.17c-0.01,5.54-0.02,10.81,0.03,16.09
			C828.51,522.87,828.71,523.33,828.76,523.4L828.76,523.4z M784.31,493.06c-5.8,0-11.63-0.01-17.54-0.02l-24.56-0.02l17.21-39.12
			c3.63-8.37,7.27-16.73,11.21-24.95c5.28-11.03,17.62-18.17,29.36-16.86c13.43,1.44,22.9,8.63,27.4,20.79
			c0.65,1.78,0.99,3.48,0.99,5.06c0.07,14.46,0.08,28.93,0.07,43.39c0,6.75-4.49,11.51-10.9,11.58
			C806.52,493.03,795.49,493.06,784.31,493.06z M754.63,484.93l12.16,0.01c17.27,0.02,33.97,0.05,50.66-0.13
			c0.79-0.01,2.89-0.03,2.89-3.49c0.02-14.45,0-28.9-0.07-43.35c0-0.62-0.18-1.43-0.49-2.29c-3.45-9.34-10.21-14.42-20.66-15.54
			c-8.3-0.85-17.41,4.41-21.2,12.31c-3.89,8.13-7.49,16.4-11.08,24.67L754.63,484.93z"/>
	</g>
	<g>
		<path class="st1" d="M536.54,613.1c0-8.32,0.29-16.65-0.06-24.95c-0.7-16.64,14.62-34.71,34.24-34.98
			c8.27-0.11,16.78-0.42,24.79,1.24c16.08,3.34,27.24,18.24,27.28,34.57c0.04,16.27-0.07,32.55,0.03,48.82
			c0.11,17.58-15.38,35.79-35.03,35.29c-8.45-0.22-17.09,0.3-25.28-1.35c-16.16-3.24-26.92-20.42-26.06-34.25
			C536.95,629.41,536.54,621.24,536.54,613.1z M612.61,613.38c0-8.86-0.46-17.74,0.11-26.56c0.8-12.19-11.12-24.33-23.91-24.54
			c-5.96-0.1-11.93-0.11-17.89-0.01c-13.7,0.23-25.06,11.62-25.15,25.37c-0.11,17.17-0.12,34.34,0,51.51
			c0.1,13.7,11.23,24.66,24.86,24.72c6.51,0.03,13.02,0.11,19.52-0.03c11.71-0.26,22.33-11.07,22.44-22.81
			C612.67,631.82,612.6,622.6,612.61,613.38z"/>
		<path class="st1" d="M588.58,677.17c-0.29,0-0.59,0-0.89-0.01c-2.11-0.06-4.23-0.06-6.36-0.07c-6.45-0.02-13.12-0.05-19.63-1.36
			c-18.44-3.7-30.25-23.24-29.3-38.46c0.34-5.43,0.25-11.07,0.16-16.51c-0.04-2.55-0.08-5.1-0.08-7.65c0-2.61,0.03-5.22,0.06-7.83
			c0.06-5.65,0.13-11.31-0.11-16.95c-0.4-9.35,3.53-19.1,10.76-26.74c7.46-7.89,17.21-12.31,27.47-12.45l2.19-0.03
			c7.75-0.13,15.74-0.25,23.48,1.35c17.63,3.66,30.46,19.87,30.51,38.53l0,19.98c-0.01,9.6-0.03,19.21,0.03,28.82
			c0.06,10.13-4.54,20.73-12.33,28.37C607.29,673.28,598.1,677.17,588.58,677.17z M579.07,557.13c-2.04,0-4.07,0.03-6.09,0.06
			l-2.21,0.04c-8.05,0.11-15.75,3.63-21.7,9.92c-5.65,5.98-8.85,13.77-8.55,20.84c0.24,5.79,0.18,11.58,0.12,17.38
			c-0.03,2.58-0.06,5.16-0.06,7.74c0,2.51,0.04,5.01,0.08,7.52c0.09,5.6,0.18,11.39-0.18,17.14c-0.74,11.86,8.87,27.23,22.82,30.02
			c5.73,1.15,11.72,1.17,18.06,1.2c2.18,0.01,4.37,0.02,6.53,0.07c7.64,0.27,15.07-2.89,20.97-8.68c6.25-6.13,9.95-14.56,9.9-22.54
			c-0.06-9.63-0.04-19.25-0.03-28.88l0-19.96c-0.04-14.86-10.15-27.74-24.05-30.62C589.73,557.35,584.4,557.13,579.07,557.13z
			 M581.66,667.98c-2.38,0-4.76-0.02-7.15-0.03l-3.9-0.02c-15.82-0.08-28.78-12.97-28.89-28.74c-0.12-17.19-0.11-34.37,0-51.56
			c0.11-15.94,13.18-29.12,29.14-29.39c6-0.1,12.02-0.09,18.02,0.01c7.49,0.12,14.96,3.64,20.5,9.64
			c5.13,5.56,7.82,12.56,7.39,19.21c-0.39,5.93-0.29,12.07-0.19,18.02c0.05,2.76,0.09,5.52,0.09,8.28l0.01,9.05
			c0.01,6.21,0.02,12.42-0.04,18.64c-0.13,13.97-12.46,26.51-26.39,26.82C587.38,667.95,584.52,667.98,581.66,667.98z
			 M579.41,566.26c-2.81,0-5.62,0.02-8.42,0.07c-11.6,0.19-21.1,9.77-21.17,21.35c-0.11,17.15-0.12,34.3,0,51.45
			c0.08,11.36,9.42,20.65,20.83,20.7l3.91,0.02c5.16,0.04,10.33,0.07,15.49-0.06c9.59-0.21,18.4-9.17,18.48-18.79
			c0.06-6.18,0.05-12.36,0.04-18.55l-0.01-9.07c0-2.71-0.04-5.43-0.09-8.15c-0.1-6.11-0.2-12.42,0.21-18.68
			c0.29-4.44-1.63-9.25-5.26-13.19c-3.99-4.32-9.47-6.95-14.67-7.03C585.64,566.28,582.52,566.26,579.41,566.26z"/>
	</g>
	<g>
		<path class="st1" d="M725.39,613.61c-0.51,10.06-0.12,20.27-1.73,30.16c-2.92,17.92-17.26,29.35-35.45,29.33
			c-7.73-0.01-15.67,0.38-23.14-1.19c-14.77-3.1-25.57-14.91-26.24-29.85c-0.9-19.94-0.94-39.98,0.11-59.91
			c0.78-14.88,17.14-28.45,32.56-29c5.6-0.2,11.21-0.02,16.82-0.08c17.2-0.2,35.46,12.72,36.52,36.65
			c0.35,7.94,0.06,15.92,0.06,23.87C725.06,613.59,725.22,613.6,725.39,613.61z M714.69,613.12c0-8.32,0.02-16.64,0-24.96
			c-0.04-14.94-10.97-25.82-26.04-25.91c-5.06-0.03-10.13-0.03-15.19,0c-13.13,0.09-24.53,8.95-25.39,21.93
			c-1.2,18.17-1.45,36.47-0.79,54.67c0.59,16.22,13.75,26.62,28.06,25.11c4.83-0.51,9.76-0.06,14.64-0.09
			c13.77-0.08,24.63-10.93,24.7-24.72C714.73,630.48,714.69,621.8,714.69,613.12z"/>
		<path class="st1" d="M680.67,677.18c-5.46,0-11.01-0.18-16.44-1.32c-16.86-3.54-28.7-17.05-29.46-33.63
			c-0.93-20.74-0.9-41.03,0.11-60.3c0.87-16.53,18.24-32.18,36.46-32.84c3.48-0.13,6.95-0.11,10.43-0.09c2.16,0.02,4.34,0.03,6.49,0
			c18.64-0.12,39.44,13.91,40.62,40.52c0.25,5.52,0.18,11.06,0.12,16.6c-0.02,1.2-0.03,2.39-0.04,3.59l0.18,0.01l0.29,4.08
			c-0.16,3.09-0.23,6.19-0.3,9.29c-0.16,6.99-0.32,14.22-1.48,21.31c-3.19,19.58-19.02,32.73-39.38,32.73c-0.03,0-0.05,0-0.08,0
			l-3.9,0.02C683.09,677.17,681.88,677.18,680.67,677.18z M677.92,557.09c-2.1,0-4.19,0.02-6.29,0.09
			c-13.83,0.5-28.03,12.97-28.66,25.17c-0.99,19-1.03,39.03-0.11,59.51c0.58,12.82,9.83,23.3,23.03,26.07
			c5.79,1.21,12.18,1.17,18.34,1.12l3.97-0.02c0.02,0,0.04,0,0.06,0c16.51,0,28.82-10.17,31.39-25.93
			c1.06-6.54,1.22-13.17,1.38-20.19c0.04-1.8,0.08-3.61,0.14-5.41l-0.08,0l-0.25-3.91c0-2.51,0.03-5.03,0.06-7.54
			c0.06-5.39,0.13-10.78-0.11-16.15c-0.95-21.36-17.18-32.78-32.1-32.78c-0.11,0-0.23,0-0.34,0c-2.21,0.03-4.42,0.02-6.63,0
			C680.46,557.1,679.19,557.09,677.92,557.09z M672.63,668.15c-7.04,0-13.9-2.5-19.18-7.09c-6.27-5.43-9.9-13.27-10.21-22.06
			c-0.67-18.36-0.4-36.89,0.79-55.08c0.96-14.55,13.59-25.6,29.4-25.71c5.08-0.04,10.16-0.04,15.24,0
			c17.38,0.11,30.02,12.7,30.06,29.94l0.01,17.29l0,7.68l0,8.68c0.01,5.79,0.01,11.59-0.02,17.38
			c-0.08,16.03-12.7,28.66-28.73,28.74c-1.62,0-3.34-0.04-5.01-0.08c-3.21-0.09-6.27-0.16-9.23,0.14
			C674.72,668.1,673.67,668.15,672.63,668.15z M680.83,566.28c-2.45,0-4.9,0.01-7.34,0.02c-11.51,0.08-20.7,7.88-21.37,18.15
			c-1.18,17.91-1.44,36.17-0.79,54.26c0.24,6.52,2.87,12.29,7.43,16.24c4.44,3.85,10.21,5.62,16.15,4.99
			c3.49-0.37,6.96-0.28,10.3-0.19c1.59,0.04,3.16,0.08,4.75,0.08c11.53-0.06,20.62-9.15,20.68-20.68
			c0.03-5.78,0.02-11.56,0.02-17.34l0-8.69l0-7.68l-0.01-17.27c-0.04-12.79-9.09-21.78-22.01-21.86
			C686.03,566.29,683.43,566.28,680.83,566.28z"/>
	</g>
	<g>
		<path class="st1" d="M623.32,466.85c-0.53,10.96-0.07,22.09-1.83,32.85c-2.49,15.21-17.12,27.16-32.58,27.66
			c-8.42,0.27-17.08,0.37-25.29-1.2c-15.81-3.04-27.07-17.93-27.08-34.01c-0.01-16.81-0.02-33.62,0-50.43
			c0.02-18.36,15.66-34.1,34.1-34.33c5.6-0.07,11.21-0.05,16.81,0c19.45,0.14,35.29,16.11,35.34,35.59c0.02,7.95,0,15.91,0,23.86
			C622.98,466.84,623.15,466.85,623.32,466.85z M612.61,467.42c0-8.5-0.47-17.03,0.11-25.49c0.91-13.22-10.24-24.19-21.25-25.31
			c-7.5-0.76-15.22-1.09-22.69-0.23c-14.08,1.63-23.02,12.56-23.04,26.84c-0.02,16.28-0.04,32.55,0.01,48.83
			c0.04,12.07,6.83,22.52,18.56,24.8c9.18,1.79,19.15,1.97,28.39,0.49c13.19-2.11,19.88-11.76,19.9-24.97
			C612.62,484.05,612.61,475.73,612.61,467.42z"/>
		<path class="st1" d="M580.54,531.57c-5.84,0-11.82-0.31-17.68-1.44c-17.3-3.33-30.36-19.66-30.37-37.99
			c-0.01-16.82-0.02-33.63,0-50.44c0.03-20.55,17.48-38.12,38.1-38.37c5.64-0.07,11.26-0.05,16.89,0
			c21.65,0.16,39.31,17.94,39.36,39.63l0.01,16.53l0,3.47l0.19,0.01l0.32,4.08c-0.16,3.35-0.23,6.7-0.3,10.06
			c-0.16,7.63-0.32,15.52-1.58,23.25c-2.76,16.84-18.77,30.48-36.44,31.05C586.26,531.5,583.42,531.57,580.54,531.57z
			 M578.46,411.39c-2.59,0-5.18,0.01-7.77,0.04c-16.3,0.2-30.08,14.07-30.1,30.28c-0.02,16.81-0.01,33.62,0,50.42
			c0.01,14.52,10.24,27.43,23.8,30.04c7.92,1.53,16.4,1.39,24.39,1.13c13.71-0.45,26.6-11.33,28.71-24.27
			c1.17-7.16,1.32-14.41,1.48-22.1c0.04-2.08,0.08-4.15,0.15-6.23l-0.11,0l-0.26-3.88l0-7.34l-0.01-16.51
			c-0.04-17.28-14.09-31.43-31.32-31.56C584.44,411.4,581.45,411.39,578.46,411.39z M579.97,522.38c-5.56,0-11.14-0.52-16.43-1.55
			c-13.02-2.53-21.79-14.1-21.84-28.77c-0.05-16.28-0.03-32.56-0.01-48.84c0.02-16.62,10.72-29.02,26.62-30.86
			c6.82-0.78,14.3-0.71,23.56,0.23c12.64,1.29,25.97,13.76,24.88,29.61c-0.39,5.67-0.29,11.55-0.19,17.24
			c0.05,2.66,0.09,5.32,0.09,7.98l0,24.96c-0.02,15.8-8.73,26.63-23.31,28.97C589.03,522.04,584.51,522.38,579.97,522.38z
			 M578.18,419.92c-3.18,0-6.13,0.16-8.93,0.49c-11.8,1.37-19.44,10.33-19.46,22.82c-0.02,16.27-0.04,32.54,0.01,48.81
			c0.03,10.86,6.03,19.04,15.29,20.84c8.69,1.7,18.28,1.87,26.98,0.46c14.33-2.29,16.48-14.13,16.49-20.98l0-24.95
			c0-2.61-0.04-5.23-0.09-7.84c-0.1-5.86-0.2-11.91,0.21-17.93c0.75-10.92-8.68-20.1-17.62-21
			C586.3,420.16,582.06,419.92,578.18,419.92z"/>
	</g>
	<g>
		<path class="st1" d="M740.7,561.28c2.54-5.96,6.3-8.12,11.18-8.15c15.93-0.1,31.9-0.76,47.77,0.18
			c19.34,1.14,34.9,15.65,34.68,36.16c-0.24,22.77-18.42,35.51-34.24,35.83c-0.68,0.01-1.36,0.31-3.64,0.86
			c10.79,16.22,23.25,30.37,34.05,45.85c-7.86,2.47-9.68,1.91-14.1-3.89c-10.07-13.23-20.07-26.51-30.34-39.58
			c-1.32-1.68-4.06-3.04-6.21-3.13c-8.13-0.36-16.29,0.02-24.43-0.21c-4.69-0.13-6.5,1.73-6.44,6.38
			c0.16,11.58,0.05,23.17,0.05,34.75c0,1.96,0,3.93,0,6.36c-3.22,0-5.97,0-9.29,0c0-15.29-0.35-30.45,0.16-45.58
			c0.22-6.65,6.89-10.91,15.2-10.95c14.48-0.07,28.96,0.02,43.44-0.04c14.97-0.06,25.87-11.05,25.88-25.98
			c0.01-17.07-10.81-27.84-28.09-27.88c-16.29-0.04-32.58,0.02-48.87-0.05C745.45,562.18,743.45,561.66,740.7,561.28z"/>
		<path class="st1" d="M823.84,677.42c-4.21,0-7.03-2.08-10.67-6.85l-6.28-8.27c-7.95-10.47-15.9-20.93-24.01-31.26
			c-0.57-0.73-2.22-1.55-3.21-1.59c-4.41-0.2-8.82-0.17-13.22-0.15c-3.71,0.02-7.43,0.04-11.14-0.06c-1.54-0.05-2,0.2-2.05,0.23
			c0.01,0.01-0.25,0.49-0.22,2.04c0.11,8.26,0.09,16.52,0.07,24.79l-0.02,20.42h-17.39v-4.05c0-4.41-0.03-8.8-0.06-13.18
			c-0.07-10.66-0.14-21.69,0.22-32.54c0.28-8.56,8.37-14.82,19.22-14.87c7.43-0.04,14.87-0.04,22.29-0.02
			c7.06,0,14.1,0.01,21.16-0.02c12.65-0.06,21.83-9.28,21.84-21.93c0.01-14.88-8.98-23.79-24.05-23.83l-21.98-0.02
			c-8.97,0-17.93,0-26.9-0.03c-1.54-0.01-3.07-0.25-4.86-0.55l-7.68-1.12l2.07-4.87c2.98-7,7.98-10.57,14.88-10.61
			c4.16-0.02,8.32-0.09,12.48-0.15c11.65-0.19,23.68-0.37,35.55,0.34c22.54,1.32,38.73,18.25,38.49,40.25
			c-0.25,23.05-17.46,37.7-34.99,39.63c4.85,6.89,9.99,13.52,15,19.97c5.16,6.65,10.5,13.53,15.43,20.59l3.16,4.52l-5.26,1.66
			C828.52,676.87,825.99,677.42,823.84,677.42z M770.84,621.19c3.06,0,6.12,0.03,9.18,0.17c3.38,0.15,7.17,2.07,9.21,4.67
			c8.15,10.37,16.12,20.87,24.1,31.37l6.28,8.26c1.78,2.34,2.63,3.46,3.99,3.68c-3.79-5.18-7.75-10.29-11.62-15.27
			c-6.35-8.18-12.91-16.63-18.92-25.67l-3.21-4.82l7.54-1.85c0.93-0.25,1.67-0.45,2.58-0.47c12.45-0.25,30.06-10.29,30.29-31.83
			c0.19-17.52-12.79-31.01-30.87-32.08c-11.57-0.68-23.45-0.49-34.95-0.32c-4.19,0.07-8.38,0.13-12.56,0.15
			c-1.44,0.01-2.74,0.23-3.93,0.96c8.79,0.03,17.59,0.03,26.36,0.03l22.01,0.02c19.52,0.05,32.13,12.58,32.12,31.93
			c-0.01,17.05-12.87,29.96-29.91,30.03c-7.06,0.04-14.12,0.02-21.2,0.02c-7.41-0.01-14.83-0.02-22.24,0.02
			c-5.43,0.03-11.02,2.45-11.17,7.04c-0.36,10.68-0.28,21.63-0.21,32.22c0.02,3.06,0.04,6.12,0.05,9.19h1.2l0.02-12.35
			c0.02-8.22,0.04-16.43-0.07-24.65c-0.05-3.53,0.82-6.13,2.65-7.94c1.84-1.81,4.46-2.63,7.94-2.55c3.62,0.11,7.25,0.08,10.87,0.06
			C767.87,621.19,769.36,621.19,770.84,621.19z"/>
	</g>
	<g>
		<path class="st1" d="M755.61,408.25c-3.29,7.53-6.57,15.09-9.88,22.62c-10.6,24.1-21.27,48.17-31.81,72.3
			c-6.82,15.61-19.95,24.65-35.72,24.32c-18.61-0.39-35.16-17.17-35.18-35.71c-0.03-26.06,0.06-52.12-0.08-78.18
			c-0.02-3.76,0.58-6.67,4.88-6.69c4.21-0.01,5.35,3.14,5.35,6.67c0.05,24.43,0.44,48.87-0.2,73.29c-0.24,9.12,0.85,17.1,7.43,23.6
			c13.55,13.38,36.19,9.21,43.94-8.27c13.12-29.59,25.97-59.31,38.9-88.98C746.27,406.28,748.64,405.19,755.61,408.25z"/>
		<path class="st1" d="M679.02,531.55c-0.3,0-0.61,0-0.91-0.01c-20.83-0.44-39.12-19.02-39.14-39.76v-25.73
			c0-17.47,0.01-34.95-0.08-52.43c-0.02-2.85,0.28-6.07,2.57-8.38c1.55-1.57,3.69-2.36,6.35-2.37c0.01,0,0.02,0,0.04,0
			c3.28,0,5.98,1.36,7.61,3.82c1.17,1.77,1.76,4.08,1.77,6.88l0.08,18.62c0.1,17.95,0.2,36.51-0.28,54.78
			c-0.22,8.46,0.75,15.21,6.23,20.62c5.52,5.45,13.01,7.75,20.61,6.33c7.54-1.43,13.65-6.3,16.79-13.36
			c9.95-22.44,19.75-44.96,29.54-67.48l9.35-21.48c1.55-3.55,3.47-7.03,7.01-8.42c3.53-1.38,7.22-0.17,10.68,1.36l3.7,1.63
			L738.63,457c-7.02,15.92-14.04,31.84-21.01,47.79C710.28,521.6,695.9,531.55,679.02,531.55z M647.85,410.96c0,0-0.01,0-0.01,0
			c-0.62,0.02-0.85,0.57-0.84,2.62c0.09,17.49,0.08,34.98,0.08,52.47v25.72c0.02,16.23,14.9,31.33,31.22,31.67
			c14.16,0.36,25.71-7.68,31.92-21.89c6.97-15.96,13.99-31.88,21.02-47.82l18.9-43.05c-0.36-0.04-0.54,0-0.62,0.03
			c-0.21,0.08-1.02,0.62-2.53,4.11l-9.35,21.47c-9.8,22.54-19.61,45.07-29.57,67.54c-4.23,9.53-12.49,16.11-22.68,18.04
			c-10.07,1.9-20.47-1.28-27.81-8.53c-7.99-7.89-8.87-17.44-8.63-26.59c0.47-18.14,0.38-36.63,0.28-54.52l-0.08-18.66
			c0-1.66-0.33-2.29-0.43-2.44C648.59,410.98,648.12,410.96,647.85,410.96z"/>
	</g>
</g>
</svg>
