<?xml version="1.0" encoding="utf-8"?>
<!-- Generator: Adobe Illustrator 27.9.0, SVG Export Plug-In . SVG Version: 6.00 Build 0)  -->
<svg version="1.1" id="Layer_1" xmlns="http://www.w3.org/2000/svg" xmlns:xlink="http://www.w3.org/1999/xlink" x="0px" y="0px"
	 viewBox="0 0 1080 1080" style="enable-background:new 0 0 1080 1080;" xml:space="preserve">
<style type="text/css">
	.st0{fill:#1A1A1A;}
	.st1{fill:#FFFFFF;}
</style>
<g>
	<g>
		<path class="st1" d="M461.49,446.68c84.57-5.21,168.9-10.4,253.47-15.6c0,22.28,0,44.14,0,66.46c-62.21,0-124.41,0-186.87,0
			c0,5.64,0,10.82,0,16.41c7.42,0.65,14.82,1.33,22.22,1.94c43.1,3.58,86.21,7.06,129.31,10.74c20.38,1.74,35.54,18.43,35.69,38.92
			c0.07,10.24,0.01,20.48,0.01,31.02c5.55,0,10.82,0,16.48,0c0-1.49,0-2.86,0-4.22c0-52.22,0.03-104.43-0.07-156.64
			c-0.01-2.98,0.8-4.16,3.8-4.84c19.88-4.52,39.71-9.26,59.55-13.92c0.9-0.21,1.82-0.32,3.03-0.53c0,82.25,0,164.33,0,247.05
			c-1.26,0-2.6,0-3.93,0c-21.58,0-43.15,0.03-64.73-0.01c-15.07-0.03-28.71-4.45-40.58-13.82c-1.94-1.53-3.24-1.51-5.14-0.1
			c-14.03,10.46-29.87,14.13-47.29,14.06c-73.82-0.31-147.65-0.24-221.47-0.03c-12.26,0.04-22.69-3.25-31.18-12.19
			c-1.11-1.17-2.39-2.19-3.83-3.5c-2.4,2.2-4.69,4.31-6.99,6.41c-6.47,5.92-14.14,9.07-22.86,9.12
			c-21.92,0.14-43.85,0.05-65.78,0.04c-0.68,0-1.35-0.12-2.47-0.22c0-1.38,0-2.62,0-3.86c0-35.43-0.02-70.86,0.01-106.29
			c0.03-30.59,19.67-56.33,49.26-64.54c14.26-3.96,28.51-7.94,42.84-11.6c3.42-0.87,4.26-2.35,4.21-5.67
			c-0.2-11.65-0.08-23.31-0.08-34.96c0-1.25,0-2.5,0-4.21c9.65,2.25,18.8,4.37,27.94,6.52c11.57,2.71,23.1,5.58,34.72,8.09
			c3.11,0.67,4.07,1.85,4.06,5.02c-0.1,46.74-0.07,93.47-0.07,140.21c0,1.49,0,2.99,0,4.72c68.07,0,135.76,0,203.72,0
			c0-5.3,0-10.48,0-16.03c-5.16-0.47-10.34-0.99-15.53-1.42c-35.09-2.9-70.17-5.78-105.26-8.69c-10.57-0.88-21.15-1.73-31.71-2.72
			c-19.09-1.78-34.4-18.21-34.67-38.1c-0.36-27.04-0.09-54.08-0.08-81.12C461.24,448.1,461.36,447.65,461.49,446.68z M377.9,596.63
			c0-17.34,0-34.39,0-51.85c-5.99,1.63-11.69,3.16-17.37,4.74c-3.91,1.09-9.37,1.1-11.26,3.69c-2.03,2.77-0.77,8.01-0.79,12.17
			c-0.05,10.34-0.02,20.68-0.02,31.26C358.34,596.63,367.94,596.63,377.9,596.63z"/>
	</g>
</g>
</svg>
