<?xml version="1.0" encoding="utf-8"?>
<!-- Generator: Adobe Illustrator 27.9.0, SVG Export Plug-In . SVG Version: 6.00 Build 0)  -->
<svg version="1.1" id="Layer_1" xmlns="http://www.w3.org/2000/svg" xmlns:xlink="http://www.w3.org/1999/xlink" x="0px" y="0px"
	 viewBox="0 0 1080 1080" style="enable-background:new 0 0 1080 1080;" xml:space="preserve">
<style type="text/css">
	.st0{fill:#1A1A1A;}
	.st1{fill:#FFFFFF;}
</style>
<g>
	<g>
		<path class="st1" d="M557.02,484c-8.19,8.55-11.82,18.21-10.69,29.46c0.9,9.02,4.94,16.57,11.47,22.89
			c6.83,6.61,13.37,13.53,20.21,20.12c14.11,13.61,13.85,37.67,0.24,51.02c-8.35,8.19-16.52,16.57-25.05,25.15
			c-1.33-1.2-2.4-2.08-3.37-3.06c-41.07-41.06-82.14-82.13-123.2-123.21c-14.71-14.72-15.12-36.63-0.62-51.49
			c14.09-14.45,28.51-28.58,42.79-42.85c0.43-0.43,0.93-0.78,2.04-1.71c-1.38,3.26-2.64,5.67-3.44,8.22
			c-4.21,13.54-1.19,25.66,8.49,35.69c14.65,15.18,29.82,29.85,44.64,44.87c2.58,2.61,3.92,2.25,6.01-0.48
			c11.21-14.58,10.4-34.19-2.32-47.44c-7.03-7.33-14.28-14.44-21.49-21.6c-14.09-13.98-14.84-35.95-1.09-50.25
			c14.07-14.65,28.66-28.8,43.03-43.16c0.44-0.44,0.96-0.8,1.74-1.45c-1.34,4.32-2.99,8.14-3.68,12.11
			c-2.11,12.13,1.36,22.68,10.05,31.39c33.4,33.45,66.67,67.04,100.34,100.22c15.74,15.51,15.58,40.06-0.24,54.53
			c-7.95,7.27-15.21,15.3-23.25,23.47C605.22,532.1,581.24,508.17,557.02,484z"/>
	</g>
	<g>
		<path class="st1" d="M499.49,729.03c0,5.6,0,10.76,0,16.16c-4.59,0-8.81,0-13.36,0c0-5.19,0-10.34,0-16.16c-4.01,0-7.72,0-11.43,0
			c-0.39,0-0.79-0.04-1.17,0.01c-19.96,2.28-25.03-12.87-22.69-27.36c2.45-15.15,10.55-21.79,25.92-21.79
			c6.38,0,12.76,0.11,19.14-0.04c2.92-0.07,3.77,0.94,3.72,3.85c-0.18,10.15-0.09,20.31-0.09,30.47c0,0.25,0.12,0.5,0.27,1.05
			c0.88,0.08,1.87,0.24,2.85,0.24c14.19,0.01,28.39,0.01,42.58-0.02c1.56,0,3.13-0.07,4.67-0.3c5.68-0.83,7.45-2.73,7.58-7.98
			c0.13-4.99-1.46-7.12-6.99-8.02c-11.81-1.93-23.65-3.63-35.49-5.34c-5.5-0.79-5.5-0.7-5.03-6.35c0.11-1.3,0.04-2.6,0.11-3.9
			c0.06-1.26,0.18-2.53,0.31-4.32c5.54,0.74,10.78,1.41,16.01,2.15c8.63,1.21,17.23,2.56,25.87,3.68
			c10.77,1.39,15.07,5.21,16.2,15.93c0.52,4.97,0.31,10.17-0.57,15.1c-1.52,8.56-7.6,12.86-17.38,12.92
			c-15.23,0.09-30.47,0.03-45.71,0.03C503.25,729.03,501.69,729.03,499.49,729.03z M485.65,715.41c0-8,0-15.59,0-23.47
			c-3.67,0-7.05-0.09-10.42,0.02c-9.34,0.3-15.08,9.06-11.88,17.93c1.25,3.45,3.57,5.41,7.21,5.49
			C475.5,715.5,480.43,715.41,485.65,715.41z"/>
	</g>
	<g>
		<path class="st1" d="M685.96,715.44c0-7.23,0-14.25,0-21.85c-0.16-0.06-1.21-0.46-2.31-0.88c0-3.59,0-7.21,0-10.83
			c0-2.98,2.09-2.47,3.86-2.22c9.78,1.37,19.56,2.79,29.33,4.22c4.5,0.66,9.02,1.2,13.48,2.09c6.71,1.35,11.04,5.5,11.71,12.35
			c0.54,5.52,0.74,11.24-0.05,16.71c-1.37,9.6-7.35,13.95-17.99,13.99c-19.26,0.06-38.53,0.08-57.79-0.01
			c-7.79-0.04-15.63,0.06-23.36-0.74c-8.27-0.86-12.91-4.98-13.46-13.2c-0.78-11.62-0.2-23.34-0.2-35.28c4.26,0,8.5,0,13.35,0
			c0,1.32,0,2.68,0,4.05c-0.02,7.81-0.1,15.62-0.03,23.43c0.04,4.77,1.52,6.62,6.21,7.48c2.91,0.53,5.93,0.65,8.9,0.67
			C666.97,715.49,676.32,715.44,685.96,715.44z M709.63,705.77c0.34-0.16,0.67-0.31,1.01-0.47c-1.24-2.64-1.89-5.89-3.85-7.78
			c-2.8-2.7-9.08-1.28-10.74,1.71c-2.38,4.27-1.13,13.5,2.06,15.08c0.46,0.23,0.97,0.35,1.47,0.47
			C706.34,716.43,709.59,713.51,709.63,705.77z M719.46,715.27c7.81,0.65,11.91-2,12.18-8.05c0.26-5.81-3.64-8.64-12.18-8.46
			C719.46,704.13,719.46,709.54,719.46,715.27z"/>
	</g>
	<g>
		<path class="st1" d="M390.35,680.1c0,4.8,0,9.03,0,13.85c-6.41,0.97-13.16,1.98-19.92,3c-5.01,0.76-10.05,1.39-15.02,2.33
			c-4.52,0.86-6.83,3.54-6.81,7.28c0.03,4.82,2.52,7.68,7.45,8.46c1.41,0.22,2.84,0.39,4.26,0.4c19.39,0.03,38.78,0.03,58.18-0.01
			c1.54,0,3.11-0.27,4.62-0.59c4.89-1.04,6.12-2.48,6.14-7.42c0.02-7.81-0.07-15.62-0.11-23.42c-0.01-1.27,0-2.55,0-4.41
			c4.34,0,8.32-0.11,12.27,0.11c0.6,0.03,1.59,1.6,1.59,2.46c0.06,10.54,0.28,21.09-0.16,31.62c-0.36,8.49-5.11,13.22-13.54,14.57
			c-2.68,0.43-5.42,0.67-8.14,0.67c-20.69,0.05-41.39-0.19-62.08,0.1c-17.94,0.24-21.02-8.48-21.57-22.73
			c-0.12-3.06,0.66-6.18,1.2-9.25c1-5.72,4.56-9.18,10.02-10.77c1.74-0.51,3.53-0.89,5.33-1.15
			C365.87,683.51,377.7,681.87,390.35,680.1z"/>
	</g>
	<g>
		<path class="st1" d="M622.88,715.1c0,5.04,0,9.27,0,14.33c-11.56-0.43-22.85-0.44-34.06-1.44c-6.28-0.56-11.27-4.57-11.55-11.29
			c-0.5-12.26-0.14-24.56-0.14-37.03c3.91,0,8.17,0,12.97,0c0,3.17,0,6.23,0,9.3c0,6.12-0.04,12.23,0.01,18.35
			c0.04,5.16,1.61,7.2,6.86,7.51c6.74,0.4,13.52,0.21,20.28,0.27C619.05,715.12,620.84,715.1,622.88,715.1z"/>
	</g>
	<g>
		<path class="st1" d="M620.6,695.03c-3.8,0-7.25,0.08-10.68-0.07c-0.61-0.03-1.28-0.96-1.72-1.61c-0.25-0.36-0.13-1.01-0.1-1.52
			c0.19-2.65-0.26-7.26,0.73-7.59c3.15-1.07,6.83-0.64,10.3-0.53c0.51,0.02,1.34,1.42,1.4,2.22
			C620.71,688.62,620.6,691.34,620.6,695.03z"/>
	</g>
	<g>
		<path class="st1" d="M551.52,745.27c-4.03,0-7.85,0-11.57,0c-0.24-0.4-0.48-0.61-0.49-0.83c-0.18-11.99-2.66-10.23,12.06-9.82
			C551.52,738.02,551.52,741.43,551.52,745.27z"/>
	</g>
	<g>
		<path class="st1" d="M394.37,734.53c4.12,0,7.82,0,11.83,0c0,3.58,0,6.99,0,10.66c-3.89,0-7.7,0-11.83,0
			C394.37,741.75,394.37,738.32,394.37,734.53z"/>
	</g>
	<g>
		<path class="st1" d="M533.86,745.24c-3.87,0-7.57,0-11.54,0c0-3.64,0-7.06,0-10.69c3.9,0,7.49,0,11.54,0
			C533.86,738.08,533.86,741.59,533.86,745.24z"/>
	</g>
	<g>
		<path class="st1" d="M516.67,734.58c0,3.65,0,6.98,0,10.59c-3.94,0-7.73,0-11.78,0c0-3.54,0-6.95,0-10.59
			C508.82,734.58,512.5,734.58,516.67,734.58z"/>
	</g>
</g>
</svg>
