<?xml version="1.0" encoding="utf-8"?>
<!-- Generator: Adobe Illustrator 27.9.0, SVG Export Plug-In . SVG Version: 6.00 Build 0)  -->
<svg version="1.1" id="Layer_1" xmlns="http://www.w3.org/2000/svg" xmlns:xlink="http://www.w3.org/1999/xlink" x="0px" y="0px"
	 viewBox="0 0 1080 1080" style="enable-background:new 0 0 1080 1080;" xml:space="preserve">
<style type="text/css">
	.st0{fill:#1A1A1A;}
	.st1{fill:#FFFFFF;}
</style>
<g>
	<g>
		<path class="st1" d="M675.07,578.7c0,35.47-0.05,70.94,0.04,106.41c0.02,7.72-1.3,15.18-3.8,22.38
			c-3.84,11.05-10.6,20.09-19.78,27.35c-11.44,9.04-24.61,13.11-38.98,13.15c-48.33,0.12-96.67,0.04-145,0.05
			c-8.26,0-16.27-1.55-23.93-4.51c-10.12-3.91-18.47-10.31-25.31-18.76c-7.79-9.62-11.66-20.77-13.15-32.88
			c-0.29-2.32-0.23-4.69-0.23-7.04c-0.01-52.93-0.01-105.85-0.01-158.78c0-18.69-0.02-37.37,0.02-56.06
			c0.04-16.62,5.6-31.11,17.08-43.2c8.71-9.17,17.55-18.21,26.33-27.3c15.47-16.01,30.96-32,46.41-48.04
			c3.91-4.06,8.27-7.51,12.99-10.55c5.91-3.81,12.46-5.95,19.25-7.55c9.83-2.32,19.5-1.69,29.19,0.84
			c10.81,2.82,19.98,8.38,27.7,16.28c14.63,14.96,29.1,30.07,43.64,45.11c9.25,9.57,18.49,19.17,27.78,28.7
			c3.68,3.78,7.04,7.81,9.94,12.21c3.23,4.9,5.47,10.21,7.05,15.87c2.16,7.73,2.77,15.61,2.77,23.58c0,30.88,0,61.77,0,92.65
			C675.07,571.98,675.07,575.34,675.07,578.7z M408.52,577.56c0,11.53,0,23.05,0,34.58c0,24.4-0.01,48.79,0,73.19
			c0,8.38,1.34,16.59,4.89,24.16c10.5,22.37,28.33,33.83,52.98,34.8c49.01,0,98.02-0.01,147.03,0.02c4.28,0,8.47-0.58,12.64-1.46
			c10.69-2.25,19.93-7.26,27.73-14.84c11.66-11.34,17.57-25.34,17.6-41.5c0.14-70.73,0.07-141.45,0.03-212.18
			c0-4.02-0.25-8.07-0.76-12.05c-1.64-12.71-6.85-23.77-15.77-33.03c-7.45-7.73-14.92-15.46-22.38-23.18
			c-10.65-11.03-21.3-22.05-31.95-33.08c-6.53-6.76-12.91-13.67-19.64-20.23c-14.54-14.18-31.92-19.63-51.98-16.05
			c-12.06,2.15-22.25,7.87-30.79,16.61c-2.97,3.04-5.93,6.09-8.88,9.15c-13.99,14.49-27.98,28.97-41.97,43.46
			c-7.69,7.97-15.45,15.88-23.06,23.93c-9.08,9.6-14.2,21.07-15.34,34.24c-0.38,4.34-0.35,8.72-0.35,13.08
			C408.51,510.64,408.52,544.1,408.52,577.56z"/>
	</g>
	<g>
		<path class="st1" d="M414.17,577.7c0-36.26,0.01-72.51,0-108.77c0-12.74,4.31-23.86,12.5-33.53c1.01-1.19,2.1-2.33,3.18-3.46
			c23.87-24.7,47.77-49.38,71.61-74.12c7.33-7.61,15.94-13.01,26.29-15.27c18.1-3.95,34.11,0.29,47.89,12.74
			c0.99,0.9,1.91,1.88,2.85,2.85c23.87,24.7,47.73,49.42,71.63,74.09c7.18,7.41,12.18,15.97,14.32,26.11
			c0.39,1.86,0.75,3.74,0.89,5.63c0.29,4.01,0.59,8.04,0.59,12.06c0.03,69.6,0.02,139.21,0.03,208.81c0,7.23-0.95,14.3-3.79,20.99
			c-7.59,17.83-20.98,28.56-39.99,32.2c-2.95,0.56-6.01,0.73-9.02,0.73c-48.78,0.04-97.57,0.05-146.35,0.02
			c-25.45-0.02-44.83-17.12-50.71-38.08c-1.34-4.78-1.93-9.63-1.92-14.59c0.02-8.84,0-17.68,0-26.52c0-27.3,0-54.61,0-81.91
			C414.16,577.7,414.17,577.7,414.17,577.7z M631.59,690.54c0-1.81,0-3.26,0-4.71c0-76.88,0-153.76,0-230.64
			c0-1.01,0.02-2.02-0.02-3.02c-0.02-0.64,0.13-1.35-0.6-1.87c-0.25,0-0.59-0.06-0.9,0.01c-28.43,6.03-56.85,12.08-85.27,18.14
			c-0.83,0.18-1.62,0.56-2.54,0.88c0,1.6,0,3.05,0,4.5c0,47.11,0,94.22,0,141.34c0,1.12,0.02,2.24-0.02,3.36
			c-0.02,0.64-0.16,1.27-0.27,2.11c-1.81-0.02-3.43,0.28-5.23-0.22c-0.04-1.32-0.12-2.53-0.12-3.74
			c-0.01-19.81-0.01-39.61-0.01-59.42c0-9.29,0.01-18.58-0.01-27.86c0-0.97,0.27-2-0.53-3.08c-7.24,1.52-14.56,3.05-21.88,4.6
			c-7.33,1.55-14.65,3.13-21.97,4.69c-7.43,1.59-14.87,3.14-22.29,4.79c-7.28,1.62-14.62,3-21.95,4.78
			c-0.07,1.08-0.17,1.96-0.18,2.84c-0.4,34.92-0.2,138.81,0.29,142.45c0.66,0.22,1.38,0.53,2.12,0.69
			c6.23,1.35,12.46,2.68,18.69,4.01c21.54,4.59,43.07,9.19,64.61,13.74c5.31,1.12,10.67,1.16,15.97-0.02
			c24.66-5.45,49.32-10.94,73.97-16.43C626.04,691.88,628.63,691.24,631.59,690.54z M490.88,414.26
			c3.37,3.92,40.13,40.51,42.33,42.12c0.54-0.47,1.15-0.93,1.69-1.46c13.09-13.01,26.17-26.03,39.24-39.06
			c0.52-0.52,0.93-1.13,1.37-1.67c-3.34-3.87-40.37-40.74-42.43-42.26C531.03,373.48,493.19,411.42,490.88,414.26z"/>
	</g>
</g>
</svg>
