<?xml version="1.0" encoding="utf-8"?>
<!-- Generator: Adobe Illustrator 27.9.0, SVG Export Plug-In . SVG Version: 6.00 Build 0)  -->
<svg version="1.1" id="Layer_1" xmlns="http://www.w3.org/2000/svg" xmlns:xlink="http://www.w3.org/1999/xlink" x="0px" y="0px"
	 viewBox="0 0 1080 1080" style="enable-background:new 0 0 1080 1080;" xml:space="preserve">
<style type="text/css">
	.st0{fill:#1A1A1A;}
	.st1{fill:#FFFFFF;}
</style>
<g>
	<g>
		<path class="st1" d="M664.49,549.79c0.27,0.11,0.46,0.26,0.62,0.23c19.98-3.63,39.96-7.27,60.04-10.94
			c0.33-1.97-0.26-3.82-0.19-5.68c0.08-1.99,0.02-3.99,0.02-5.99c0-1.9-0.01-3.8,0-5.7c0.01-1.88,0.04-3.76,0.06-5.58
			c2.22-0.53,6.59-0.59,9.64-0.15c0.07,0.68,0.19,1.41,0.19,2.14c0.02,4.47,0.01,8.93,0.01,13.4c0,0.85-0.03,1.71,0.04,2.56
			c0.36,4.25,2.44,7.33,6.38,9.03c2.26,0.98,4.58,1.83,6.88,2.74c5.56,2.19,11.1,4.44,16.69,6.56c5.86,2.23,11.56,1.68,17.01-1.35
			c1.58-0.88,3.03-1.95,4.36-3.52c-1.41-9.27-3.09-18.61-4.61-27.96c-1.51-9.26-3.16-18.5-4.58-27.89c3.18-0.87,6.26-1.19,9.49-1.71
			c0.26,0.74,0.55,1.32,0.65,1.93c2.55,15.27,5.07,30.54,7.6,45.8c0.61,3.65,1.18,7.31,1.86,10.95c0.21,1.11,0.11,1.98-0.59,2.91
			c-4.61,6.08-10.62,9.97-18.08,11.55c-5.92,1.25-11.7,0.68-17.33-1.57c-7.49-2.99-15.01-5.92-22.51-8.88
			c-2.13-0.84-4.19-1.86-5.89-3.41c-0.96-0.88-1.93-1.04-3.12-0.82c-5.32,1.01-10.64,1.98-15.96,2.97c-9.8,1.82-19.6,3.63-29.4,5.45
			c-8.87,1.64-17.73,3.28-26.61,4.89c-1.02,0.19-2.07,0.3-3.1,0.3c-9.98-0.07-19.95-0.16-29.93-0.26
			c-17.19-0.16-34.39-0.32-51.58-0.48c-16.81-0.16-33.63-0.33-50.44-0.5c-2.57-0.03-5.13-0.03-7.7-0.08
			c-0.84-0.01-1.68-0.12-2.51-0.19c-0.73-0.93-0.9-1.98-1.21-2.95c-7.75-24.63-15.48-49.27-23.23-73.9
			c-0.28-0.89-0.61-1.76-0.96-2.77c-3.41,0.67-6.5,1.81-9.64,2.76c-0.24,1.14,0.28,1.97,0.57,2.85
			c4.34,13.06,8.69,26.12,13.05,39.18c0.84,2.52,1.61,5.07,2.55,7.56c2.57,6.79,3.93,13.87,5.06,21c2.34,14.78,3.06,29.66,2.84,44.6
			c-0.01,0.37-0.07,0.74-0.1,1.06c-2.18,1.71-128.69,79.7-130.85,80.66c-1.9-2.56-3.44-5.36-5.2-8.27
			c21.14-13.05,42.14-26.01,63.15-38.97c20.93-12.91,41.85-25.82,62.78-38.72c0.05-0.62,0.11-1.08,0.12-1.55
			c0.28-16.02-1.27-31.87-4.56-47.55c-0.27-1.3-0.63-2.58-1.05-3.84c-6.8-20.45-13.62-40.9-20.42-61.35
			c-0.32-0.97-0.84-1.91-0.78-2.95c1.94-1.01,25.91-8.31,28.9-8.8c0.83,0.59,0.84,1.63,1.11,2.49c4.63,14.66,9.23,29.34,13.83,44.02
			c3.44,10.96,6.87,21.92,10.31,32.88c0.25,0.81,0.54,1.61,0.85,2.51c0.67,0.07,1.31,0.19,1.96,0.2c19.47,0.2,38.95,0.38,58.42,0.58
			c17.76,0.18,35.53,0.38,53.29,0.56c6.18,0.06,12.35,0.12,18.53,0.16c0.93,0.01,1.87-0.06,2.72-0.1c0.68-1.14,0.42-2.21,0.42-3.23
			c0.02-12.83,0.01-25.66,0.02-38.48c0-1.03,0.05-2.06,0.08-3.04c2.16-0.49,6.32-0.55,9.58-0.15c0.39,0.92,0.24,1.97,0.24,2.98
			c0.01,11.31,0.01,22.61,0.01,33.92c0,1.42-0.01,2.85,0.01,4.27C664.34,548.73,664.44,549.28,664.49,549.79z"/>
	</g>
	<g>
		<path class="st1" d="M430.49,597.46c-47.51,26.64-94.94,53.24-142.34,79.82c-1.46-1.5-3.74-5.41-4.94-8.35
			c0.04-0.08,0.08-0.17,0.13-0.25c0.05-0.08,0.11-0.16,0.18-0.21c0.15-0.12,0.3-0.23,0.46-0.33c0.08-0.05,0.17-0.09,0.25-0.14
			c0.25-0.14,0.49-0.29,0.74-0.43c44.81-25.12,89.61-50.25,134.42-75.37c0.17-0.09,0.32-0.2,0.48-0.31
			c0.08-0.05,0.16-0.11,0.23-0.17c0.07-0.06,0.13-0.14,0.21-0.22c0.37-2.31,0.39-29.44-0.01-32.26c-0.47-0.08-1-0.24-1.53-0.26
			c-1.33-0.04-2.66-0.02-3.99-0.02c-14.92,0-29.84,0-44.76,0c-2.66,0-5.32-0.1-7.91-0.81c-9.17-2.52-15.26-8.31-17.84-17.47
			c-5.76-20.44,3.08-42.71,21.25-53.9c2.92-1.8,5.98-3.32,9.23-4.43c5.57-1.9,11.14-3.8,16.75-5.55
			c17.11-5.34,33.81,5.43,37.95,20.62c0.84,3.06,1.1,6.16,1.1,9.3c0,7.51,0,15.01,0,22.52c0,21.57,0,43.14,0,64.71
			C430.55,595.08,430.51,596.21,430.49,597.46z M420.42,548.76c0.08-0.71,0.16-1.08,0.16-1.45c0.01-14.06,0.19-28.12-0.05-42.17
			c-0.22-13.34-13.23-22.74-26.19-18.72c-5.53,1.71-11.02,3.54-16.47,5.49c-17.66,6.34-28.82,25.2-24.3,44.89
			c1.74,7.6,7.38,12.08,15.12,12.09c16.34,0.02,32.68,0.01,49.01,0C418.54,548.89,419.38,548.81,420.42,548.76z"/>
	</g>
	<g>
		<path class="st1" d="M548.69,508.4c-0.83-3.32-1.7-6.3-2.18-9.3c0.25-0.22,0.36-0.42,0.52-0.46
			c79.17-19.32,158.34-38.62,237.6-57.95c1.09,1.33,1.07,3.03,1.61,4.5c0.55,1.51,1.02,3.05,1.53,4.58
			c-0.67,0.75-1.54,0.83-2.34,1.03c-14.74,3.62-29.48,7.24-44.23,10.83c-21.48,5.23-42.96,10.44-64.44,15.66
			c-25.44,6.19-50.88,12.39-76.32,18.59c-16.04,3.9-32.08,7.79-48.12,11.69C551.22,507.83,550.12,508.07,548.69,508.4z"/>
	</g>
	<g>
		<path class="st1" d="M407.37,425.77c-5.55,3.07-10.77,6.31-16.24,9.35c-1.93-2.19-3.15-4.66-4.66-6.93
			c-1.53-2.29-3-4.62-4.44-6.96c-1.44-2.33-3.1-4.52-4.36-7.18c8.35-4.94,16.65-9.7,24.89-14.49c1.1,0.61,1.44,1.65,1.97,2.51
			c9.6,15.5,19.18,31.01,28.77,46.52c0.55,0.88,1.12,1.75,1.77,2.77c0.96-0.55,1.28-1.46,1.74-2.21
			c8.95-14.45,17.88-28.91,26.82-43.37c1-1.62,1.99-3.24,3-4.84c0.35-0.54,0.77-1.04,1.14-1.54c2.01,0.9,15.25,9.85,17.98,12.11
			c-0.69,1.83-3.28,5.75-5.36,8.06c-1.13-0.35-2.03-1.21-3.04-1.86c-1.03-0.67-2.04-1.39-3.06-2.08c-1.02-0.69-2.04-1.38-2.97-2.01
			c-1.19,0.14-1.39,1.1-1.81,1.79c-5.46,8.79-10.9,17.6-16.34,26.4c-4.19,6.78-8.39,13.57-12.58,20.35
			c-0.45,0.73-0.92,1.44-1.39,2.18c-1.28,0.57-2.62,0.24-3.93,0.3c-1.22,0.06-2.45,0.01-3.8,0.01
			C423.41,451.69,415.43,438.79,407.37,425.77z M399.44,412.97c-2.75,1.6-5.19,3.02-7.7,4.47c0.68,1.6,1.45,2.94,2.55,4.03
			c3.42-1.52,6.29-3.3,7.54-4.68C401.1,415.62,400.36,414.43,399.44,412.97z"/>
	</g>
</g>
</svg>
