<?xml version="1.0" encoding="utf-8"?>
<!-- Generator: Adobe Illustrator 27.9.0, SVG Export Plug-In . SVG Version: 6.00 Build 0)  -->
<svg version="1.1" id="Layer_1" xmlns="http://www.w3.org/2000/svg" xmlns:xlink="http://www.w3.org/1999/xlink" x="0px" y="0px"
	 viewBox="0 0 1080 1080" style="enable-background:new 0 0 1080 1080;" xml:space="preserve">
<style type="text/css">
	.st0{fill:#1A1A1A;}
	.st1{fill:#FFFFFF;}
</style>
<g>
	<g>
		<path class="st1" d="M607.57,512.36c0.39,0.06,0.75,0.17,1.11,0.17c36.74,0.03,73.48,0.01,110.3,0.02c0.13-0.57,0.27-1,0.3-1.43
			c0.05-0.68,0.02-1.37,0.02-2.06c0-16.51,0-33.02,0-49.53c0-0.9,0.05-1.81,0.07-2.78c1.93-0.49,3.76-0.22,5.57-0.26
			c1.82-0.04,3.65,0.01,5.36,0.02c0.75,0.87,0.54,1.75,0.54,2.56c0.02,3.82,0.01,7.64,0.01,11.46c0,0.83,0.05,1.66,0.08,2.51
			c0.52,0.12,0.88,0.25,1.25,0.28c0.53,0.04,1.07,0.02,1.6,0.02c35.14,0,70.29,0,105.43,0c0.9,0,1.83,0.13,2.81-0.28
			c0.06-0.45,0.16-0.88,0.17-1.32c0.02-1.99,0.01-3.97,0.01-5.96c0-15.21,0-30.42,0.01-45.63c0-0.9-0.13-1.82,0.21-2.69
			c0.27-0.11,0.47-0.26,0.68-0.26c2.98-0.03,5.96-0.05,8.94-0.05c0.45,0,0.89,0.1,1.44,0.16c0.11,0.46,0.25,0.89,0.29,1.32
			c0.05,0.53,0.02,1.07,0.02,1.6c0,63.51,0,127.03-0.01,190.54c0,0.97,0.14,1.97-0.27,3c-0.4,0.07-0.76,0.17-1.13,0.18
			c-0.84,0.03-1.68,0.02-2.52,0.02c-38.58,0-77.16,0-115.75,0c-0.98,0-1.97-0.09-2.98,0.13c-0.42,0.94-0.29,1.86-0.29,2.76
			c-0.01,8.56-0.01,17.12-0.01,25.68c0,2.68,0.01,5.35-0.01,8.03c0,0.75-0.06,1.5-0.1,2.34c-0.53,0.14-0.95,0.29-1.38,0.34
			c-0.53,0.06-1.07,0.03-1.6,0.03c-42.94,0-85.87,0-128.81,0c-0.91,0-1.81-0.04-2.79-0.06c-0.15-0.55-0.34-0.97-0.37-1.4
			c-0.06-0.76-0.03-1.53-0.03-2.29c0-63.13,0-126.26,0.01-189.39c0-1.13-0.19-2.28,0.25-3.35c1.69-0.41,8.71-0.46,11.09-0.07
			c0.07,0.38,0.18,0.81,0.2,1.24c0.04,0.76,0.02,1.53,0.02,2.29c0,16.43,0,32.87,0.01,49.3
			C607.34,510.47,607.21,511.39,607.57,512.36z"/>
	</g>
	<g>
		<path class="st1" d="M399.48,457.06c0.06,0.28,0.18,0.57,0.18,0.87c0.01,64.72,0.01,129.43,0,194.15c0,0.29-0.12,0.58-0.2,0.94
			c-0.38,0.09-0.74,0.22-1.11,0.24c-0.68,0.04-1.37,0.03-2.06,0.03c-26.66,0-53.31,0-79.97-0.01c-0.98,0-1.98,0.16-3.03-0.26
			c-0.08-0.34-0.21-0.7-0.23-1.06c-0.04-0.76-0.03-1.53-0.03-2.29c0-63.11,0-126.22,0-189.33c0-1.06,0.04-2.12,0.06-3.27
			c0.54-0.13,0.96-0.28,1.39-0.32c0.61-0.05,1.22-0.03,1.83-0.03c26.66,0,53.31,0,79.97,0.01
			C397.33,456.74,398.42,456.54,399.48,457.06z M319.67,523.7c-0.04,1.13-0.12,2.1-0.12,3.08c-0.01,18.88,0,37.75,0,56.63
			c0,0.61-0.01,1.22,0.03,1.83c0.03,0.37,0.15,0.73,0.23,1.08c0.93,0.46,1.86,0.31,2.76,0.31c11.31,0.01,22.61,0.01,33.92,0.01
			c11.23,0,22.46,0,33.69-0.01c0.9,0,1.84,0.19,2.73-0.31c0.45-0.92,0.26-1.93,0.26-2.91c0.01-18.88,0.01-37.75,0.01-56.63
			c0-0.61,0.02-1.23-0.02-1.83c-0.03-0.43-0.17-0.86-0.27-1.3c-0.4-0.08-0.69-0.19-0.98-0.19c-23.68-0.01-47.36-0.01-71.04,0
			C320.57,523.46,320.27,523.57,319.67,523.7z"/>
	</g>
	<g>
		<path class="st1" d="M285.47,555.02c0.48,0.86,0.94,1.73,1.43,2.59c5.23,9.06,10.45,18.13,15.72,27.17
			c0.8,1.37,1.15,2.74,1.15,4.33c-0.04,20.4-0.02,40.81-0.03,61.21c0,0.83-0.03,1.67-0.05,2.58c-0.52,0.15-0.93,0.32-1.36,0.37
			c-0.61,0.06-1.22,0.03-1.83,0.03c-23.68,0-47.36,0-71.04-0.01c-0.97,0-1.97,0.13-3.03-0.29c-0.07-0.46-0.18-0.89-0.2-1.33
			c-0.04-0.69-0.02-1.38-0.02-2.06c0-63.12,0-126.24,0.01-189.36c0-1.05-0.19-2.13,0.25-3.24c0.35-0.09,0.71-0.22,1.08-0.25
			c0.68-0.05,1.37-0.03,2.06-0.03c23.6,0,47.21,0,70.81,0.01c1.05,0,2.14-0.24,3.27,0.45c0.02,0.68,0.06,1.44,0.06,2.19
			c0,20.63-0.01,41.27,0.03,61.9c0,1.45-0.38,2.66-1.09,3.88c-5.26,9.05-10.48,18.12-15.71,27.18
			C286.47,553.2,286,554.08,285.47,555.02z M295.92,523.78c-1.2-0.49-2.12-0.35-3.02-0.35c-19.02-0.01-38.04-0.01-57.07-0.01
			c-0.53,0-1.07-0.02-1.6,0.02c-0.43,0.04-0.86,0.17-1.39,0.28c-0.03,0.93-0.08,1.76-0.09,2.59c-0.01,8.94,0,17.88,0,26.83
			c0,10.24,0,20.48,0.01,30.72c0,0.82-0.16,1.67,0.23,2.5c0.9,0.41,1.82,0.27,2.72,0.27c19.1,0.01,38.2,0.01,57.3,0
			c0.61,0,1.22,0.01,1.83-0.03c0.28-0.02,0.56-0.16,1.05-0.3c-1.96-3.6-3.99-6.98-5.96-10.41c-2.02-3.51-4.04-7.01-6.07-10.52
			c-1.98-3.44-3.96-6.87-5.95-10.34C283.91,544.62,289.86,534.31,295.92,523.78z"/>
	</g>
	<g>
		<path class="st1" d="M412.12,456.91c0.44-0.1,0.73-0.23,1.02-0.23c14.28-0.01,28.57-0.01,42.85,0c0.29,0,0.58,0.12,0.99,0.21
			c0.09,0.44,0.21,0.87,0.25,1.3c0.05,0.53,0.02,1.07,0.02,1.6c0.03,34.08,0.06,68.17,0.08,102.25c0.01,7.26-0.01,14.52,0.01,21.78
			c0,0.82-0.16,1.67,0.26,2.61c0.54,0.06,1.13,0.18,1.73,0.18c9.47,0.01,18.95,0.01,28.42,0c0.59,0,1.17-0.14,1.73-0.21
			c0.35-1.12,0.21-2.12,0.21-3.1c0.01-41.04,0.01-82.08,0.01-123.12c0-0.97-0.15-1.97,0.26-3.03c2-0.24,3.94-0.25,5.99,0.02
			c0.1,0.49,0.23,0.92,0.26,1.36c0.04,0.69,0.02,1.37,0.02,2.06c0,52.04,0.01,104.09-0.01,156.13c0,11.31-0.08,22.62-0.13,33.93
			c0,0.75-0.08,1.5-0.13,2.36c-0.55,0.1-0.98,0.22-1.41,0.26c-0.45,0.04-0.92,0.02-1.37,0.02c-13.14,0-26.28,0-39.42-0.01
			c-0.9,0-1.83,0.16-2.77-0.34c-0.06-0.35-0.16-0.72-0.17-1.08c-0.03-0.84-0.02-1.68-0.02-2.52c0-40.89,0-81.77,0-122.66
			c0-0.99,0-1.98,0-2.85c-0.79-0.69-1.58-0.52-2.32-0.53c-4.28-0.02-8.56-0.01-12.83-0.01c-4.81,0-9.63-0.01-14.44,0.01
			c-0.82,0-1.68-0.14-2.58,0.31c-0.06,0.42-0.15,0.85-0.17,1.29c-0.03,0.76-0.01,1.53-0.01,2.29c0,40.89,0,81.77,0,122.66
			c0,0.99-0.02,1.97-0.03,2.92c-1.07,0.78-2.17,0.47-3.2,0.5c-0.97,0.03-1.98,0.17-3.04-0.27c-0.08-0.42-0.21-0.85-0.24-1.28
			c-0.04-0.69-0.02-1.37-0.02-2.06c0-63.12,0-126.25,0-189.37C411.91,459.23,411.8,458.15,412.12,456.91z"/>
	</g>
	<g>
		<path class="st1" d="M539.81,412.45c1.73-0.44,4.36-0.47,6.44-0.06c0.08,0.4,0.23,0.83,0.25,1.27c0.05,0.76,0.03,1.53,0.03,2.29
			c0,85.81,0,171.62-0.01,257.43c0,1.2,0.19,2.44-0.26,3.59c-1.76,0.41-4.28,0.43-6.49,0.03c-0.06-0.38-0.15-0.81-0.18-1.25
			c-0.03-0.53-0.01-1.07-0.01-1.6c0-86.27,0-172.53,0.01-258.8C539.58,414.37,539.41,413.37,539.81,412.45z"/>
	</g>
	<g>
		<path class="st1" d="M777.83,652.91c-0.27-1.77-0.3-25.97-0.04-28.11c0.46-0.56,1.11-0.41,1.7-0.42
			c3.58-0.01,7.17-0.01,10.75-0.01c4.5,0,9,0,13.5,0c0.76,0,1.51,0,2.39,0c0.15,0.62,0.35,1.1,0.37,1.6
			c0.05,1.22,0.03,2.44,0.03,3.66c0,6.94,0.01,13.89-0.01,20.83c0,0.82,0.16,1.68-0.25,2.41c-0.62,0.59-1.34,0.41-2,0.42
			c-3.28,0.02-6.56,0.01-9.84,0.01c-4.73,0-9.46,0.01-14.19-0.01C779.43,653.29,778.55,653.49,777.83,652.91z"/>
	</g>
	<g>
		<path class="st1" d="M647.51,457.08c0.4-0.09,0.68-0.2,0.97-0.2c9.08-0.01,18.15-0.01,27.36-0.01c0.11,0.6,0.28,1.09,0.29,1.59
			c0.03,1.91,0.02,3.82,0.02,5.73c0,6.18,0,12.37,0,18.55c0,0.83-0.04,1.66-0.07,2.58c-0.54,0.11-0.97,0.27-1.4,0.27
			c-8.63,0.01-17.25,0.01-25.88,0.01c-0.37,0-0.74-0.08-1.13-0.13c-0.48-0.84-0.31-1.69-0.32-2.51c-0.02-6.41-0.01-12.83-0.01-19.24
			c0-1.68-0.01-3.36,0.01-5.04C647.38,458.17,647.46,457.65,647.51,457.08z"/>
	</g>
	<g>
		<path class="st1" d="M799.49,412.91c-0.71,1.9-1.84,3.44-2.76,5.1c-0.93,1.67-1.9,3.31-2.86,4.96c-0.95,1.65-1.89,3.3-2.89,5.05
			c1.35,1.45,3.36,1.87,4.68,3.18c-0.44,1.59-2.25,4.83-3.73,6.65c-1.73-0.5-3.11-1.81-4.93-2.53c-0.3,0.38-0.67,0.74-0.93,1.18
			c-1.7,2.9-3.36,5.82-5.05,8.72c-0.38,0.64-0.63,1.4-1.34,1.81c-0.91-0.06-1.5-0.68-2.32-1.16c0.21-0.54,0.34-1.05,0.59-1.48
			c1.62-2.86,3.27-5.69,4.9-8.54c0.38-0.66,0.75-1.32,1.19-2.12c-0.43-0.33-0.81-0.68-1.24-0.93c-3.96-2.3-7.93-4.58-11.89-6.89
			c-0.64-0.37-1.4-0.61-1.8-1.32c0.66-1.74,11.15-19.99,12.58-21.87c0.25,0.06,0.57,0.06,0.81,0.2c5.43,3.12,10.84,6.26,16.26,9.39
			C798.96,412.42,799.12,412.6,799.49,412.91z M775.47,419.31c2.25,1.31,4.26,2.53,6.31,3.67c2.1,1.17,4.08,2.57,6.29,3.47
			c1.62-2.19,4.11-6.62,4.69-8.38c-0.12-0.08-0.3-0.21-0.5-0.33c-3.69-2.13-7.38-4.27-11.08-6.39c-0.24-0.14-0.56-0.13-0.98-0.22
			C778.67,413.8,777.15,416.43,775.47,419.31z"/>
	</g>
</g>
</svg>
