<?xml version="1.0" encoding="utf-8"?>
<!-- Generator: Adobe Illustrator 27.9.0, SVG Export Plug-In . SVG Version: 6.00 Build 0)  -->
<svg version="1.1" id="Layer_1" xmlns="http://www.w3.org/2000/svg" xmlns:xlink="http://www.w3.org/1999/xlink" x="0px" y="0px"
	 viewBox="0 0 1080 1080" style="enable-background:new 0 0 1080 1080;" xml:space="preserve">
<style type="text/css">
	.st0{fill:#1A1A1A;}
	.st1{fill:#FFFFFF;}
</style>
<g>
	<g>
		<path class="st1" d="M298.12,669.71c-11.76-13.23-22.73-25.01-33.06-37.31c-17.51-20.85-33.11-43.03-45.17-67.55
			c-9.07-18.44-14.49-37.7-15.58-58.41c-2.4-45.56,35.9-91.07,81.17-95.56c52.93-5.26,94.41,25.39,105.58,77.31
			c4.74,22.03,0.2,42.49-8.02,62.61c-9.62,23.54-23.02,44.97-38.84,64.71c-13.63,17.02-28.49,33.06-42.78,49.56
			C300.46,666.19,299.68,667.51,298.12,669.71z M298.42,423.51c-44.77,0.04-81.08,36.31-81.07,80.99
			c0,44.57,36.48,80.93,81.17,80.92c44.67-0.02,81.11-36.42,81.07-81.02C379.56,459.75,343.15,423.47,298.42,423.51z"/>
	</g>
	<g>
		<path class="st1" d="M477.24,633.73c-0.63,7.31-1.1,14.64-1.97,21.92c-0.3,2.5-1.42,4.98-2.54,7.29
			c-1.62,3.32-3.96,5.94-8.16,5.73c-4.29-0.21-7.28-2.48-8.73-6.33c-1.13-3.02-1.59-6.3-2.29-9.48c-0.52-2.39-0.82-4.84-1.44-7.19
			c-0.8-2.98-2.89-4.75-6-4.49c-3.12,0.26-4.66,2.41-5.19,5.45c-0.74,4.29-1.52,8.59-2.47,12.84c-0.38,1.7-1.06,3.4-1.9,4.93
			c-1.57,2.84-4.04,4.31-7.37,4.3c-3.43-0.01-5.81-1.72-6.98-4.74c-1.22-3.15-2.01-6.48-2.88-9.76c-0.73-2.76-1.29-5.57-1.97-8.35
			c-0.63-2.58-2.07-5.15-4.82-4.51c-1.95,0.46-4.23,2.62-4.96,4.55c-1.42,3.78-1.54,8.04-2.81,11.9c-0.99,3.01-2.36,6.23-4.51,8.45
			c-4.08,4.23-10.67,3.43-13.04-1.88c-2.39-5.36-4.5-11.33-4.71-17.11c-0.81-22.76,1.49-45.22,9.6-66.75
			c1.13-3.01,2.74-6.03,4.83-8.43c4.82-5.54,12.62-5.17,16.94,0.76c1.81,2.48,2.87,5.52,4.11,8.38c1.72,3.99,2.85,8.31,5.03,12.02
			c3.5,5.95,9.98,5.73,13.3-0.35c1.81-3.31,2.68-7.12,4.15-10.63c1.36-3.25,2.53-6.7,4.55-9.52c4.22-5.91,11.73-6.3,16.59-0.9
			c2.14,2.37,3.82,5.34,5.04,8.31C473.65,597.26,476.34,615.24,477.24,633.73z"/>
	</g>
	<g>
		<path class="st1" d="M801.09,619.21c-0.17,12.88-1.35,25.59-5.21,37.94c-0.49,1.55-1.04,3.1-1.73,4.58
			c-3.75,8.02-11.18,9.18-16.79,2.22c-4.44-5.5-8.08-11.63-12.23-17.38c-1.98-2.74-4-5.58-6.54-7.74c-3.79-3.23-7.46-2.09-8.52,2.81
			c-1.09,5.01-1.29,10.23-1.75,15.37c-0.49,5.52-4.44,10.15-9.45,10.85c-4.59,0.64-8.41-0.74-10.04-5.18
			c-2.41-6.59-4.55-13.44-5.54-20.36c-2.9-20.4-1.89-40.77,2.35-60.92c0.71-3.37,2.15-6.83,4.11-9.65
			c4.14-5.94,11.17-6.14,15.45-0.34c3.7,5.02,6.56,10.66,9.9,15.95c2.03,3.21,3.93,6.6,6.49,9.36c4.39,4.74,8.93,3.6,10.37-2.72
			c1.17-5.13,1.41-10.49,1.88-15.77c0.54-6.03,3.05-9.28,8.16-10.14c6.4-1.08,10.61,0.54,12.38,6.49
			c2.43,8.17,4.07,16.63,5.37,25.07C800.75,606.09,800.68,612.69,801.09,619.21z"/>
	</g>
	<g>
		<path class="st1" d="M563.25,617.8c0.54-12.41,1.7-24.61,5.11-36.48c0.96-3.33,2.5-6.72,4.59-9.46
			c4.82-6.31,13.79-5.49,16.38,1.89c2.3,6.56,2.91,13.74,3.95,20.7c0.46,3.1-0.16,6.9,3.56,7.91c4.13,1.12,6.27-2.34,7.52-5.5
			c1.94-4.91,3.35-10.04,4.82-15.13c1.37-4.75,3.6-8.83,7.96-11.45c6.06-3.65,13.98-3.16,18.3,1.08c4.5,4.42,5.31,12.51,1.31,18.55
			c-2.7,4.07-6.12,7.66-9.18,11.49c-2.3,2.87-4.77,5.63-6.77,8.7c-3.27,5-3.07,10.14,0.78,14.77c3.31,3.98,7,7.64,10.4,11.55
			c4.21,4.85,7.09,10.35,7.28,16.94c0.21,7.65-3.94,13.39-10.43,14.55c-9.06,1.61-15.99-1.8-18.58-9.4
			c-1.32-3.86-2.08-7.92-3.42-11.77c-1.21-3.46-2.55-6.96-4.48-10.03c-0.97-1.53-3.8-3.31-5.06-2.88c-1.66,0.57-3.35,3.07-3.72,4.99
			c-0.96,4.93-0.9,10.05-1.83,14.99c-0.61,3.27-1.75,6.65-3.49,9.47c-4.17,6.74-12.23,7.01-16.36,0.2c-2.6-4.29-4.31-9.47-5.1-14.45
			C565.12,638.69,564.36,628.22,563.25,617.8z"/>
	</g>
	<g>
		<path class="st1" d="M488.79,648.43c1.04-23.12,6.14-45.14,15.58-66.17c2.32-5.17,5.34-9.84,10.48-12.73
			c6.01-3.38,12.54-2.91,17.3,2.03c2.87,2.98,5.41,6.58,7.1,10.35c9.96,22.13,15.58,45.31,15.74,69.67
			c0.02,2.95-0.52,5.99-1.32,8.85c-1.21,4.32-3.79,7.58-8.65,8.17c-4.57,0.55-8.66-1.62-10.85-6.41c-1.68-3.68-2.58-7.71-3.87-11.58
			c-0.86-2.58-1.46-5.3-2.72-7.67c-2.58-4.86-6.45-5.2-9.4-0.51c-2.43,3.86-3.93,8.32-5.71,12.57c-1.05,2.5-1.61,5.22-2.81,7.64
			c-2.16,4.35-5.92,6.28-10.74,5.96c-4.6-0.3-7.31-3.33-8.36-7.31C489.45,657.14,489.33,652.73,488.79,648.43z M530.33,602.69
			c0.08-4.78-3.7-8.81-8.31-8.83c-4.54-0.03-8.46,4.04-8.45,8.76c0.01,4.52,3.72,8.44,8.16,8.62
			C526.24,611.42,530.25,607.44,530.33,602.69z"/>
	</g>
	<g>
		<path class="st1" d="M646.31,646.33c1.48-22.32,6.46-43.57,15.77-63.74c1.79-3.87,4.35-7.64,7.36-10.65
			c6.4-6.39,15.27-6.11,21.43,0.51c2.46,2.64,4.51,5.87,5.98,9.18c10.21,22.94,16.35,46.81,15.6,72.12
			c-0.08,2.8-0.74,5.68-1.68,8.33c-1.31,3.7-4.01,6.21-8.12,6.55c-4.14,0.35-7.79-1.13-9.75-4.76c-1.91-3.55-3.05-7.52-4.44-11.33
			c-1.25-3.44-1.99-7.13-3.69-10.32c-2.08-3.91-5.82-4.3-8.13-0.59c-2.84,4.55-4.62,9.76-6.82,14.7c-1.15,2.6-1.92,5.42-3.38,7.83
			c-2.19,3.6-5.86,4.78-9.92,4.47c-4.16-0.32-7.05-2.91-7.95-6.66C647.34,656.86,647.02,651.55,646.31,646.33z M671.44,602.66
			c0.06,4.86,3.9,8.74,8.48,8.57c4.36-0.16,8.13-4.12,8.19-8.6c0.06-4.62-3.96-8.81-8.41-8.77
			C675.06,593.91,671.38,597.83,671.44,602.66z"/>
	</g>
	<g>
		<path class="st1" d="M875.79,645.82c-0.64,5.09-0.87,10.29-2.05,15.25c-1,4.18-3.92,7.2-8.65,7.56
			c-4.55,0.34-8.18-1.62-10.12-5.59c-1.83-3.75-2.82-7.91-4.24-11.86c-1.15-3.18-2.01-6.55-3.69-9.44
			c-1.94-3.33-5.17-3.69-7.31-0.54c-2.78,4.1-4.69,8.8-6.76,13.34c-1.29,2.83-1.92,5.98-3.34,8.73c-2.09,4.04-5.8,5.62-10.26,5.36
			c-4.19-0.24-6.85-2.79-8.12-6.49c-0.96-2.78-1.64-5.81-1.66-8.74c-0.18-24.76,4.84-48.47,15.06-71.03
			c3-6.62,6.9-12.53,14.55-14.45c6.63-1.67,12.42,0.68,15.65,6.19c4.3,7.34,7.81,15.26,10.78,23.25
			C871.38,612.93,874.68,629.07,875.79,645.82z M842.42,593.87c-4.44-0.11-8.5,4.01-8.53,8.67c-0.03,4.47,3.7,8.47,8.1,8.69
			c4.51,0.23,8.55-3.71,8.67-8.46C850.78,598.08,847,593.98,842.42,593.87z"/>
	</g>
	<g>
		<path class="st1" d="M298.41,521.9c-6.1,8.96-13.74,14.87-23.82,17.07c-2.52,0.55-5.45,0.24-7.94-0.51
			c-1.18-0.35-2.41-2.67-2.41-4.11c0-1.06,1.77-2.59,3.06-3.08c2.27-0.85,4.77-1.08,7.18-1.52c8.22-1.53,13.94-6.32,18.17-13.36
			c1.83-3.04,1.65-5.58-0.4-8.19c-3.03-3.86-6.19-7.63-9.15-11.54c-2.05-2.71-4.14-5.46-5.73-8.44c-2.56-4.77-1.5-7.66,3.53-9.76
			c8.16-3.41,16.77-3.6,25.37-2.54c3.74,0.46,7.53,1.45,10.99,2.91c4.82,2.04,6.05,5.71,3.56,10.35c-1.79,3.33-4.19,6.36-6.55,9.34
			c-2.12,2.66-4.58,5.06-6.88,7.57c-6.12,6.68-6.1,6.66-0.65,13.76c5.84,7.6,12.99,12.39,23.11,11.12c2.18-0.27,4.66,0.21,4.47,2.81
			c-0.12,1.55-2,3.98-3.38,4.21c-3.68,0.59-7.65,0.84-11.26,0.09C310.37,536.14,303.69,530.24,298.41,521.9z"/>
	</g>
</g>
</svg>
